<svg xmlns="http://www.w3.org/2000/svg" viewBox="0 0 96.13 68.87"><defs><style>.a{fill:#070707;}</style></defs><path class="a" d="M6.13,61.81H0s1-6.39,1.07-6.7c3.54-1.7,6-7.61,1.77-10.92.1-.51.42-3.26.42-3.26H9.4L8.87,44.2c3,4.68,3.2,7.5-.59,10.95A3.59,3.59,0,0,0,11,57.22c1.72,0,3.06-1.71,3.71-2.51,2.09-2.56,2.85-7.26.34-10.52l.52-3.26h6.15s-.5,2.85-.56,3.28c2.66,4.25,2.86,8.15-1.3,11.07,1.06,1.29,2.09,2.09,3.74,1.92s2.65-1.52,3.39-2.6a9.41,9.41,0,0,0,.38-10.4c.07-.46.51-3.26.51-3.26h6.16s-.15.83-.34,2a5.23,5.23,0,0,0-.08,1.34c3.54,3.08,1.44,9.15-1.84,10.76-.08.37-.17.73-.27,1.09-1,3.55-3.13,6.33-7.7,6.33a6.25,6.25,0,0,1-5.75-3.27,8.18,8.18,0,0,1-6.69,3.27,5.51,5.51,0,0,1-4.87-2.55H6.43Zm48.42.31h-6l.36-2.27a9,9,0,0,1-6.42,2.64c-4.47-.2-6.44-2.94-7.58-6.56,3-2,6.76-7.36,3.69-11.83A9.59,9.59,0,0,1,46,40.25a6.37,6.37,0,0,1,5.42,2.6h.09l.3-1.92,6.09,0s-.16.78-.35,2a10.34,10.34,0,0,0-.13,1.33c3,3.18,2.07,9.13-1.88,11.55C55.49,56.06,54.55,62.12,54.55,62.12ZM44,48.37c-1.32,2-2.36,5-2.08,6.53a2.89,2.89,0,0,0,3,2.12,8.66,8.66,0,0,0,4.86-1.77c1.53-1,4.34-3.49,3.82-6.56-.26-1.5-1.86-2.91-4.86-2.91A5.91,5.91,0,0,0,44,48.37Zm22.73,8.42h3.77l-.78,5H65.91L64.8,68.87H58.67l1.1-7.06h-2.1l.78-5h2.11l.13-.88.16-1c3.08-2,4.72-7.56,1.77-10.84a8,8,0,0,1,.12-1.27L63,40.93l6.25,0a17.65,17.65,0,0,0-.4,1.92c-.06.38-.13.8-.16,1.27C71.11,47,70,52.94,67,54.92l-.15,1Zm24.54-.54c-2.11,3.41-5.49,6.24-10.53,6.24s-7.77-2.54-8.6-6.3c-.08-.37-.14-.76-.19-1.16,2.62-1.74,4.34-6.61,2.64-11.57a16.19,16.19,0,0,1,9.93-3.21,9.16,9.16,0,0,1,6.61,2.42c.27.26,3,3.15,3,4.15-5,2-9.8-3.16-13.8-1.16,1.22,1.42,1.13,2.77-.12,4.35,4,0,10.11-.82,13.52.4C93.93,50.52,92.21,54.67,91.23,56.25Zm-13-2.14a4.25,4.25,0,0,0,0,1.07,3.35,3.35,0,0,0,3.39,3.14A5,5,0,0,0,86,55.16q.24-.51.45-1a27.71,27.71,0,0,0-6.93,0Z"/><path class="a" d="M10.48,28h8.84l-.86,5.45H3.37L8.64,0H14.9Z"/><polygon class="a" points="55.22 12.54 56.34 5.48 50.38 5.48 49.27 12.54 43.9 12.54 45.01 5.48 39.06 5.48 37.94 12.54 34.23 12.54 33.44 17.55 37.15 17.55 34.65 33.42 40.6 33.42 43.1 17.55 48.47 17.55 45.97 33.42 51.92 33.42 54.43 17.55 58.09 17.55 58.88 12.54 55.22 12.54"/><path class="a" d="M64.36,23.93c-.42,2.64.13,5.62,3.24,5.62,2,0,3.38-1.19,4.45-2.85l4.57,2.22c-2.11,4.17-5.36,5.18-9.74,5.18-6.47,0-9.69-4.59-8.69-10.93s5.14-11.31,11.9-11.31,9.11,5.06,8.12,11.35l-.12.72Zm8.71-3.7c0-2.12-1-4.21-3.29-4.21s-4,2.05-4.67,4.21Z"/><path class="a" d="M88,14.71h.09a7.13,7.13,0,0,1,5.64-2.85,6.22,6.22,0,0,1,2.38.51L94.54,17.9a3.75,3.75,0,0,0-2.35-.77c-4.13,0-5.13,3.66-5.64,6.89l-1.48,9.4h-6l3.3-20.88h6Z"/><path class="a" d="M27.39,33.42H21.44l3.3-20.88h6Z"/><path class="a" d="M32.62,4A4.27,4.27,0,0,1,28.54,7.5a2.94,2.94,0,0,1-3-3.53A4.34,4.34,0,0,1,29.65.44,3,3,0,0,1,32.62,4Z"/></svg>