<svg xmlns="http://www.w3.org/2000/svg" viewBox="0 0 178.86 54.58"><defs><style>.a{fill:none;stroke:#1b1b1b;stroke-miterlimit:10;stroke-width:0.25px;}</style></defs><path class="a" d="M.37,53.86c1.29-27,2-40.32,2.84-40.33C4.32,13.51,5,51.64,6.1,53.68c.26.49,2.75-1.07,2.87-1.13.57-.28,2.1,1.61,2.92,1.24a11.23,11.23,0,0,0,3-1.76c.72-.58,1.53,1.25,3,1.62,1,.24,1.31-5,2.42-4.64,1.46.53,2.25,5.09,3.4,5.15,1,.05,1.7-.9,2.67-.83s2.62,1.09,3.65.9c4.84-.85,8.71.08,9.42-.86,1.34-1.78,2.22-53.55,4-53.24,1.17.2.2,46.22,2.3,53.48.37,1.3,1.71-.94,3.13-1.36.47-.15,1.5,2,2.09,2a29.17,29.17,0,0,0,6.18-.4c2.19-1.68,1.71-41.84,2.91-40.43,1,1.16,1.22,40.43,3.71,40.26,1-.07,1.72-2.14,2.74-2.24.85-.08,1.94,2.57,2.82,2.47,1-.12,1.23-3.94,2.31-4.07.9-.11,1.84,4.29,2.77,4.18,1.12-.13,2.24-2.51,3.44-2.69s1.65,2.93,2.81,2.74,2-1.54,3.09-1.76,2.09,1.64,3.13,1.44c.65-.12,2.32-2.09,3-2.24,1-.22,4.88,2.51,5.85,2.29,3.15-.71,2.18-3.34,5.33-3.06,1,.08,1.91,3.07,2.93,3.18s2.13-3.35,3.2-3.22,2,3.59,2.92,3.55c1.77-.07,3.37-1.66,5.07-1.66,1.5,0,2.42,1.39,3.76,1.41,1.12,0,1.27-1.62,2.27-1.51,3.09.31,7.92,1.83,8,1.41,1.41-5.63,1.42-43.9,3.16-46.25.75-1,1.22,35.52,2.1,46.1.1,1.21,1.92-1.73,5.49-1.64,2.63.06,7.28,1.68,7.3,1.26.52-10.12,1.73-38.7,2.66-40.73.83-1.81.62,31.23,2.83,40.48.48,2,4-1.9,6-1.46a174,174,0,0,0,20,2.59"/><path class="a" d="M.37,53.86c-.33.11,2.19.62,5.05.35,1.29-.11,1.81-3.43,3.11-3.44.68,0,2.83,3.61,3.43,3.44,2-.55,2.45-4.68,3.5-4.34.78.25,2.21,4,2.23,3.77,1.7-16.79,2.22-22.84,2.86-22.91S21.93,51.84,23,53.88c.26.49,2.54-3.87,3.09-3.58s1.34,2.74,3.13,3.14c.92.2,2.16-2.17,3-2,1,.21,2.37,1.78,2.63,1.71,2.34-.6,1.74-19.44,2.73-19.23,1.42.31.45,19.33,3.33,19.49.79,0,1.16-1.9,1.85-1.86.94.06,2.35,2.29,3.11,2.33,1.24.06,2-1.72,2.85-1.74,1.67,0,2.88,2.4,3.37,1.75,1.34-1.78,1.59-34.46,2.3-32.84C55.52,23.61,56.1,46.7,58.19,54c.16.55,1.47-2.85,2.23-3.08s2.28,3.23,3,3c1.38-.42,2.12-2,3.06-1.6,2.39,1.12,8.83,1.82,9,1.41,1.19-2.67,2-46.27,3.33-45,1,.95.39,43.74,2.48,45.09.88.56,4.71,1.53,5.14-1.11,1.76-10.94,2.59-37.61,4-36.91.87.45,2,35.08,3,37.9.24.66.74-4.79,1.55-5.87.59-.78,1,6.15,2.08,6,2.92-.25,5.92-.86,7-1,2.42-.26,3.41-44.52,4.56-44.52,1.38,0-.16,43.91,2.88,44.18,1,.08,1.88-5.55,3-5.48.83,0,.76,7.1,1.66,7.14s1.92-3,2.82-2.94,1.54,1.76,2.35,1.78c1.09,0,2.13-3.08,3.25-3.06s2.16,3.2,3.2,3.22,1.94-2.5,2.82-2.49c1.15,0,2.88,3.35,4,3.35s2.66-38.85,3.49-40,1.55,37.26,1.81,39.15c.22,1.49.7.55.78.19,1.12-4.7,2.73-27,3.72-27,.76,0,1.86,26.26,2.77,27.48.32.44,2.11-9.25,3-11.22.4-.85,1.44,10.68,2.52,10.44.81-.17,1.43-5.61,2.19-5.72s1.89,5.5,2.54,5.51c2.63.06,7.06.15,7.09-.27.51-10.12,2.22-42.84,3.18-45.13.76-1.84,1,35.81,2.06,45.34,0,.33,1.18,1,1.41-.57,1.36-9.15,1.61-32.24,2.43-31.6,1.28,1,1,30.1,3.27,33.18"/><path class="a" d="M.12,54c1,.07,6.76.08,6.82-1.14C8,30.25,8.43,29.1,8.77,27.4,9,26.31,11,53.29,11.82,53.28c.49,0,1.25-39.46,2-39.12.57.25,3,39.5,3.8,39.13,1.13-.5,2.68.65,5.37.59,1.38,0,1.3-31.2,2.65-31,1,.15,1.78,30.32,3.11,30.39,1.13.06,1.3-21.51,2.51-21.4,1.38.13,1.63,19.2,3.74,22,1.16,1.54,1.48-1.41,3.22-1.41.57,0,1.13,1.7,1.76,1.77s2-2.11,2.66-2c1.75.34,2.72,2,2.85,1.81,1.34-1.78,2.15-37.81,2.85-36.2,1.46,3.34,1.3,28.41,3.39,35.67.38,1.29,1.77-1.21,3-1.26.85,0,2.36,1.57,3.42,1.71.29,0,1.39-1.09,1.77-1,.7.22,1.26,1.1,1.72,1.08,2.42-.15,1.91-1.51,3.62-1.33,1,.1,3.08,1.27,3.81,1.38,1.32.2,2-2.88,3-3.06s2.14,2.82,3.12,2.75,2.53-7.88,3.55-7.94,1.33,7.61,2.22,7.56S82.61,51,83.43,51c1-.06,2.21,3.3,3.22,3.25s1-3.07,1.82-3.1c.58,0,2,3.2,2.55,3.19,1,0,1.24-1.88,2.19-1.89S94.44,54,95.43,54c1.37,0,2.79-3.73,4-3.67.5,0,2.09,3.31,2.57,3.34s2-2.26,2.6-2.23c1.27.09,3.08,2.36,4.19,2.4,2.09.07,2.46-.46,2.62-1.12,1.12-4.71,1.42-45,2.91-48.53.7-1.63.26,45.86,2.09,49.29.22.42,1.3-3.58,2.13-4.19.47-.34,1.72,4.38,2.72,4.32s1.69-1.31,2.88-1.41c1-.07,2.46,1.7,3.53,1.6s2-2.32,3-2.42,1.78,1.62,2.67,1.53c1.09-.1,2.19.6,3.23.5,1.35-.12,2.58,1,3.74.92s2.37-2.58,3.26-2.64,2.29,2.7,2.71,2.71c1.06,0,1.78-2.45,3-2.1,1.75.53,2.72,1,2.76.81,1.22-7.43,2.94-31.93,3.32-33.26.55-1.92.61,24.71,2.82,34,.48,2,4.35-3.09,6.33-2.66,1.39.31,3.06,2.43,4.78,2.85,1.46.35,2.84-2.4,4.28-2.14.81.15,1.62,2.32,2.48,2,2-.73,1.81-.67,2.71.16"/><path class="a" d="M.12,54.21a5.08,5.08,0,0,0,2.1-.14C2.82,53.89,3.46,53,4.14,53c.48,0,1.37.84,1.83,1,1.11.29,1.62-.54,2.05-.41,1.19.35,1.23-.09,2.12-.86s.95,1.47,2.92,1.53c1.21,0,2.63-.49,4-.45.94,0,6.79.42,7.78.45s.73-2.12,1.63-2.09c2.46.07,1,2,3.56,2.09.58,0,1.22-1,1.8-1s1.22-.63,1.8-.62,1.37,1.07,2.1,1.09,2-.16,2.63-.15,1-.91,1.59-.9c.77,0,.81,1,1.56,1,1,0,2.39-1.45,3.37-1.43s2,.78,3,.8c1.29,0,1.75-3.76,2.93-3.74.9,0,2.54,3.81,3.36,3.82,1.59,0,3.4.89,4.28,0,.47-.46,1.73-5.61,2.22-5.15,1,.93,2.78,5.05,2.86,4.94,2.17-3,2.1-29.69,2.88-29.7,1.11,0,2,27.93,3.06,30,.23.43,2-40.92,2.61-40.92S75,54.11,75.5,53.7C78,51.82,78,51,81,53.36c.54.42,2.15-33.11,3.36-33.55.78-.29,1.06,33.56,2.39,33.63.35,0,6.83,2.64,7.08-1.65.74-12.49,1.87-50.23,2.3-51,.66-1.22,1.7,38.54,2.3,51.6.09,1.92,1.63.35,1.7,0,1.18-6.23,1.21-38.8,2.08-38.54s1.55,39.75,2.59,39.89C105.48,53.76,106,46,107,45c.65-.71,3.19,8.51,4.1,8.5s1.44-4.86,2.2-4.52c1.09.49,2.81,4.63,3.19,4.51,1.69-.51,2.34-39.12,3.36-39.2s1.36,37,2.52,38.88c1.41,2.27,2.63-28.42,3.57-28.43,1.18,0,1.46,25.05,2.51,28.71.22.74,2.41.43,4.35.69,1.24.17,2.44-1.78,4-1.72,1,0,2.06,1.63,3.13,1.65.67,0,2.4-3.91,3.27-3.91,1.18,0,1.87,3.16,3.17,3.64.72.27,1.25-1.2,2-1,.89.18,1,1,1.83,1,.43,0,1.29-1.61,1.69-1.51.82.21.67,1.63,1.7,1.4.67-.15.71-3.76,1.65-3.37,1.1.46,2,3,2.86,2.93,1.09-.08,2.28-36.22,3.14-37.66s2.05,35.82,3,37.71c.19.37,1.27-.78,1.95-1.09.45-.21.69,1.5,1.36,1.54.95,0,1.35-1.5,2.09-1.14s1,1.07,1.27,1.09c6,.3,5.75.29,7.88.35"/></svg>