<svg xmlns="http://www.w3.org/2000/svg" viewBox="0 0 54.33 178.58"><defs><style>.a{fill:none;stroke:#8f8f8f;stroke-miterlimit:10;stroke-width:0.1px;}</style></defs><path class="a" d="M53.73,178.37c-27-1.29-40.31-2-40.33-2.84,0-1.11,38.12-1.79,40.16-2.89.49-.26-1.07-2.75-1.13-2.87-.29-.57,1.6-2.1,1.24-2.92a11.28,11.28,0,0,0-1.77-3c-.57-.72,1.25-1.53,1.62-3.05.25-1-5-1.31-4.64-2.42.53-1.46,5.09-2.25,5.15-3.4.06-1-.89-1.7-.82-2.67s1.08-2.62.9-3.65c-.85-4.84.08-8.71-.87-9.42C51.46,137.89-.3,137,0,135.28c.21-1.16,46.22-.2,53.49-2.29,1.29-.38-.94-1.72-1.37-3.14-.14-.47,2-1.5,2-2.09a28.48,28.48,0,0,0-.4-6.18c-1.68-2.19-41.84-1.71-40.42-2.91,1.15-1,40.43-1.22,40.25-3.71-.07-1-2.13-1.72-2.23-2.74-.09-.85,2.56-1.94,2.46-2.82-.12-1-3.94-1.23-4.07-2.31-.11-.9,4.3-1.84,4.19-2.77-.14-1.12-2.51-2.24-2.7-3.44s2.93-1.65,2.75-2.81-1.55-2-1.76-3.09,1.64-2.09,1.44-3.13c-.13-.65-2.1-2.32-2.25-3-.21-1,2.52-4.88,2.3-5.85-.72-3.15-3.34-2.18-3.07-5.33.09-1,3.08-1.91,3.19-2.93s-3.35-2.13-3.23-3.2,3.6-2,3.56-2.92c-.08-1.77-1.66-3.37-1.66-5.07,0-1.5,1.38-2.42,1.4-3.76,0-1.12-1.61-1.27-1.51-2.27.32-3.09,1.84-7.92,1.41-8C48.1,48.1,9.84,48.09,7.49,46.35c-1-.75,35.51-1.22,46.1-2.1,1.2-.1-1.73-1.92-1.65-5.49.07-2.63,1.69-7.28,1.27-7.3-10.12-.52-38.7-1.72-40.73-2.66C10.66,28,43.7,28.18,53,26c2-.48-1.89-4-1.45-6,1-4.7,2.66-16.59,2.38-20"/><path class="a" d="M53.73,178.37c.12.33.62-2.19.36-5.05-.12-1.29-3.44-1.81-3.45-3.11,0-.68,3.62-2.83,3.45-3.43-.56-2-4.68-2.45-4.35-3.5.25-.78,4-2.21,3.77-2.23-16.78-1.7-22.84-2.22-22.91-2.86s21.11-1.38,23.16-2.48c.49-.26-3.88-2.54-3.58-3.09s2.74-1.34,3.13-3.13c.21-.92-2.16-2.16-2-3,.2-1,1.77-2.37,1.7-2.63-.6-2.34-19.44-1.73-19.22-2.73.31-1.42,19.33-.45,19.48-3.33,0-.79-1.89-1.16-1.85-1.85,0-.94,2.28-2.35,2.32-3.11.07-1.24-1.72-2-1.73-2.85,0-1.67,2.4-2.88,1.74-3.37-1.78-1.34-34.45-1.59-32.83-2.3,2.57-1.12,25.65-1.71,32.91-3.8.55-.16-2.84-1.47-3.08-2.23s3.24-2.28,3-3c-.42-1.38-2-2.12-1.6-3.06,1.12-2.39,1.82-8.83,1.42-9-2.67-1.19-46.28-2-45-3.33.94-1,43.74-.39,45.08-2.48.57-.87,1.53-4.71-1.1-5.13-10.95-1.77-37.61-2.6-36.91-4,.45-.87,35.08-2,37.9-3,.65-.24-4.8-.74-5.87-1.55-.78-.59,6.14-1,6-2.08-.26-2.92-.87-5.92-1-7-.27-2.42-44.53-3.41-44.53-4.56,0-1.38,43.91.16,44.18-2.88.09-1-5.55-1.88-5.48-3,.06-.83,7.1-.76,7.15-1.66s-3-1.91-2.94-2.82,1.75-1.54,1.78-2.35c0-1.09-3.09-2.13-3.06-3.25S53.07,52,53.09,51s-2.51-1.94-2.5-2.82c0-1.15,3.36-2.88,3.35-4s-38.84-2.66-40-3.49,37.26-1.55,39.14-1.81c1.49-.22.56-.7.19-.78-4.7-1.12-27-2.72-27-3.72,0-.76,26.26-1.86,27.49-2.77.43-.32-9.26-2.11-11.22-3-.85-.4,10.67-1.44,10.44-2.52-.17-.81-5.61-1.43-5.73-2.19s5.5-1.89,5.52-2.54c.06-2.63.15-7.06-.27-7.09-10.13-.51-42.85-2.22-45.14-3.18-1.84-.76,35.81-1,45.34-2.06.33,0,1-1.18-.57-1.41C43,6.28,19.91,6,20.55,5.21c1-1.28,30.11-1,33.19-3.27"/><path class="a" d="M53.91,178.62c.06-1,.08-6.76-1.14-6.82-22.65-1.1-23.8-1.49-25.5-1.83-1.08-.22,25.9-2.2,25.88-3.05,0-.49-39.45-1.25-39.12-2,.25-.58,39.5-3,39.14-3.81-.5-1.13.64-2.68.59-5.37,0-1.38-31.21-1.3-31-2.65.15-1,30.33-1.78,30.4-3.11.06-1.13-21.52-1.3-21.4-2.5.12-1.39,19.19-1.64,22-3.75,1.53-1.16-1.41-1.48-1.42-3.22,0-.57,1.7-1.13,1.78-1.76s-2.12-2-2-2.66c.34-1.75,2-2.72,1.8-2.85-1.78-1.34-37.8-2.15-36.19-2.85,3.34-1.46,28.4-1.3,35.66-3.39,1.3-.38-1.21-1.77-1.26-3,0-.85,1.57-2.36,1.71-3.42,0-.29-1.09-1.39-1-1.77.21-.7,1.1-1.25,1.07-1.72-.14-2.42-1.5-1.91-1.33-3.62.1-1,1.27-3.08,1.38-3.81.2-1.32-2.88-2-3-3s2.81-2.14,2.74-3.12S45.8,101,45.73,100s7.62-1.33,7.57-2.22-2.42-1.61-2.47-2.43c0-1,3.3-2.21,3.26-3.22s-3.07-1-3.1-1.82c0-.58,3.2-2,3.18-2.55,0-1-1.87-1.24-1.89-2.19s1.56-1.23,1.56-2.22c0-1.37-3.72-2.79-3.67-4,0-.5,3.32-2.09,3.34-2.57s-2.26-2-2.22-2.6c.09-1.27,2.35-3.08,2.39-4.19.07-2.09-.45-2.46-1.12-2.62-4.7-1.12-45-1.42-48.52-2.91-1.64-.7,45.85-.26,49.29-2.09.41-.22-3.59-1.3-4.19-2.13-.35-.47,4.37-1.72,4.31-2.72s-1.31-1.69-1.4-2.87c-.08-1,1.69-2.46,1.6-3.54s-2.33-2-2.42-3,1.61-1.78,1.53-2.67c-.11-1.09.59-2.19.5-3.23-.13-1.35,1-2.58.91-3.74S51.6,36,51.54,35.12s2.7-2.28,2.71-2.71c0-1.06-2.46-1.78-2.1-3,.52-1.75,1-2.72.8-2.76C45.52,25.47,21,23.75,19.69,23.37c-1.91-.55,24.72-.61,34-2.82,2-.48-3.1-4.35-2.66-6.33.31-1.39,2.42-3.06,2.84-4.78.35-1.46-2.4-2.84-2.13-4.28.15-.81,2.61-1.79,2-2.48-.44-.49-.36-1,.19-1.53"/><path class="a" d="M54.09,178.62a5.08,5.08,0,0,0-.14-2.1c-.18-.6-1.07-1.24-1.09-1.92,0-.48.85-1.37,1-1.83.29-1.11-.54-1.62-.42-2,.35-1.2-.08-1.24-.86-2.13s1.47-.95,1.54-2.91c0-1.22-.5-2.64-.45-4,0-.94.41-6.79.45-7.78s-2.13-.73-2.1-1.63c.08-2.46,2-1,2.1-3.56,0-.58-1-1.22-1-1.8s-.64-1.22-.62-1.8c0-.73,1.06-1.37,1.08-2.1s-.16-2-.14-2.63-.91-1-.9-1.59c0-.77,1-.81,1-1.56,0-1-1.44-2.39-1.43-3.37s.79-2,.8-3c0-1.29-3.75-1.75-3.74-2.93,0-.9,3.81-2.54,3.82-3.36,0-1.59.9-3.4,0-4.28-.47-.47-5.61-1.73-5.15-2.22.93-1,5-2.78,4.94-2.86-3-2.17-29.69-2.1-29.7-2.88,0-1.11,27.93-2,30-3.06.43-.23-40.93-2-40.93-2.61s41.86-3,41.45-3.49c-1.88-2.45-2.74-2.45-.35-5.53.42-.54-33.11-2.15-33.55-3.36-.29-.78,33.56-1.06,33.63-2.39,0-.35,2.64-6.83-1.64-7.08-12.49-.74-50.23-1.87-51-2.3-1.23-.66,38.53-1.7,51.59-2.3,1.92-.09.36-1.63,0-1.7C46,77.41,13.39,77.37,13.66,76.5S53.4,75,53.54,73.91c.09-.65-7.7-1.21-8.7-2.14-.72-.65,8.51-3.19,8.5-4.1s-4.87-1.44-4.53-2.19c.49-1.1,4.63-2.82,4.52-3.2-.51-1.69-39.13-2.34-39.2-3.36s37-1.36,38.88-2.52c2.27-1.41-28.42-2.63-28.44-3.57,0-1.18,25.06-1.46,28.71-2.51.74-.22.44-2.41.7-4.35.16-1.24-1.79-2.43-1.73-4,0-1,1.63-2.06,1.65-3.13,0-.67-3.9-2.4-3.91-3.27,0-1.18,3.17-1.87,3.65-3.17.26-.72-1.2-1.25-1.06-2,.18-.89,1-1,1.06-1.83,0-.43-1.61-1.29-1.51-1.69.2-.82,1.62-.67,1.39-1.7-.14-.67-3.75-.71-3.36-1.65.45-1.1,3-2,2.93-2.86C53,19.59,16.87,18.4,15.43,17.54s35.82-2,37.71-3c.37-.19-.78-1.27-1.1-1.95-.2-.45,1.51-.69,1.54-1.35.05-1-1.5-1.36-1.13-2.1s1.07-1,1.08-1.27c.31-6,.33-4.57.38-6.7"/></svg>
