<?xml version="1.0" encoding="utf-8"?>
<!-- Generator: Adobe Illustrator 25.3.1, SVG Export Plug-In . SVG Version: 6.00 Build 0)  -->
<svg version="1.1" xmlns="http://www.w3.org/2000/svg" xmlns:xlink="http://www.w3.org/1999/xlink" x="0px" y="0px" width="2348px"
	 height="334.3px" viewBox="0 0 2348 334.3" style="enable-background:new 0 0 2348 334.3;" xml:space="preserve">
<style type="text/css">
	.st0{clip-path:url(#SVGID_4_);}
	.st1{fill:none;stroke:#1B1B1B;stroke-width:11.6998;stroke-linecap:round;stroke-miterlimit:10;}
	.st2{fill:none;stroke:#FFFFFF;stroke-width:5.8499;stroke-linecap:round;stroke-linejoin:round;stroke-miterlimit:10;}
	.st3{fill:#1B1B1B;}
	.st4{fill:none;stroke:#FFFFFF;stroke-width:3.8999;stroke-linejoin:round;stroke-miterlimit:10;}
	.st5{fill:#1B1B1B;stroke:#FFFFFF;stroke-width:3.8999;stroke-miterlimit:10;}
	.st6{clip-path:url(#SVGID_10_);}
	.st7{clip-path:url(#SVGID_16_);}
	.st8{clip-path:url(#SVGID_22_);}
</style>
<g id="レイヤー_1">
	<g>
		<g>
			<g>
				<defs>
					<rect id="SVGID_1_" x="1761" width="587" height="334.3"/>
				</defs>
				<clipPath id="SVGID_2_">
					<use xlink:href="#SVGID_1_"  style="overflow:visible;"/>
				</clipPath>
			</g>
			<g>
				<defs>
					<rect id="SVGID_3_" x="1761" width="587" height="334.3"/>
				</defs>
				<clipPath id="SVGID_4_">
					<use xlink:href="#SVGID_3_"  style="overflow:visible;"/>
				</clipPath>
				<g class="st0">
					<g>
						<line class="st1" x1="1729.1" y1="11" x2="1729.1" y2="130.3"/>
						<line class="st2" x1="1729.1" y1="11" x2="1729.1" y2="130.3"/>
					</g>
					<g>
						<line class="st1" x1="1729.1" y1="153.1" x2="1729.1" y2="250.8"/>
						<line class="st2" x1="1729.1" y1="153.1" x2="1729.1" y2="250.8"/>
					</g>
					<g>
						<line class="st1" x1="1793.4" y1="82" x2="1793.4" y2="189"/>
						<line class="st2" x1="1793.4" y1="82" x2="1793.4" y2="189"/>
					</g>
					<g>
						<line class="st1" x1="1793.4" y1="211.8" x2="1793.4" y2="309.5"/>
						<line class="st2" x1="1793.4" y1="211.8" x2="1793.4" y2="309.5"/>
					</g>
					<g>
						<line class="st1" x1="2544.6" y1="263.4" x2="2544.6" y2="308"/>
						<line class="st2" x1="2544.6" y1="263.4" x2="2544.6" y2="308"/>
					</g>
					<g>
						<line class="st1" x1="2431.4" y1="168.4" x2="2431.4" y2="240.6"/>
						<line class="st2" x1="2431.4" y1="168.4" x2="2431.4" y2="240.6"/>
					</g>
					<g>
						<line class="st1" x1="2376.9" y1="82" x2="2376.9" y2="189"/>
						<line class="st2" x1="2376.9" y1="82" x2="2376.9" y2="189"/>
					</g>
					<g>
						<line class="st1" x1="2314" y1="16.4" x2="2314" y2="130.3"/>
						<line class="st2" x1="2314" y1="16.4" x2="2314" y2="130.3"/>
					</g>
					<g>
						<line class="st1" x1="2376.9" y1="211.8" x2="2376.9" y2="314"/>
						<line class="st2" x1="2376.9" y1="211.8" x2="2376.9" y2="314"/>
					</g>
					<g>
						<line class="st1" x1="2314" y1="153.1" x2="2314" y2="258.6"/>
						<line class="st2" x1="2314" y1="153.1" x2="2314" y2="258.6"/>
					</g>
					<g>
						<line class="st1" x1="2263.7" y1="94.7" x2="2263.7" y2="139.9"/>
						<line class="st2" x1="2263.7" y1="94.7" x2="2263.7" y2="139.9"/>
					</g>
					<g>
						<line class="st1" x1="2146.3" y1="16.2" x2="2146.3" y2="72"/>
						<line class="st2" x1="2146.3" y1="16.2" x2="2146.3" y2="72"/>
					</g>
					<g>
						<line class="st1" x1="1970.2" y1="263.4" x2="1970.2" y2="311.9"/>
						<line class="st2" x1="1970.2" y1="263.4" x2="1970.2" y2="311.9"/>
					</g>
					<g>
						<line class="st1" x1="1857" y1="186.5" x2="1857" y2="240.6"/>
						<line class="st2" x1="1857" y1="186.5" x2="1857" y2="240.6"/>
					</g>
					<g>
						<g>
							<path class="st3" d="M2643.7,25.7l16.9,19.8c-21.1,8.2-130.1,193.8-145.6,216.2l-1.2,0.8c-8-11.2-15.9-23.3-23.8-35.9
								l5.4-0.4C2511,203.8,2599.3,35.6,2643.7,25.7z"/>
							<path class="st3" d="M2397.3,327.1c25.3-14.5,63.9-50.5,74.1-65.1c7.1,10.3,14.7,19.8,22.9,28.4c-2.5,3.8-28.9,41-82.3,43.7
								C2407,332.6,2402.2,330.1,2397.3,327.1z"/>
							<path class="st3" d="M2397.3,327.1c4.8,3.1,9.7,5.5,14.7,7c-2.1,0.1-4.2,0.2-6.3,0.2c-21.1,0-40.1-8.7-57.6-20.3
								c-57.3-37.8-97.6-126.7-137.3-200.2c-7.4-13.7-14.8-26.8-22.3-39c-19.9-32.5-40.4-58.2-63.6-68.8c-5-2.3-10.1-3.9-15.4-4.7
								c36.6-4.5,68,15.4,96.6,47.6c8.6,9.7,17,20.4,25.1,32c41.8,59.4,78,138.9,116.7,192.6C2364,295.9,2380.1,315.9,2397.3,327.1z
								"/>
							<path class="st3" d="M2494.3,290.4c-8.2-8.6-15.8-18.1-22.9-28.4c-45.9-65.7-75-161.2-123.4-213.6
								c-13.9-15-29.8-27.9-47.9-34.7c-7-2.7-14.2-4.4-21.9-5c31-7.7,49.1-2.2,69.8,10c45.2,26.9,92.1,127.7,142.1,208
								c7.9,12.6,15.8,24.7,23.8,35.9c23.7,33.1,47.9,58.7,73.1,67.3l-1,2.7C2548,332.4,2518.7,315.9,2494.3,290.4z"/>
							<path class="st3" d="M2278.2,8.7c7.7,0.6,14.9,2.4,21.9,5c-19.9,3.1-55.1,46.7-68.8,67.3c-8.2-11.6-16.5-22.3-25.1-32
								C2220.9,31.4,2249.3,6.2,2278.2,8.7z"/>
							<path class="st3" d="M1913,219.9c58.6-93.6,127.6-219.2,188.6-219.2c2.7,0,5.4,0.2,8,0.6c5.2,0.8,10.4,2.4,15.4,4.7l-0.1,0.1
								c-57.7,0-112.5,156.1-188.1,251.1C1927.6,243.8,1919.7,230.6,1913,219.9z"/>
							<path class="st3" d="M2028,327.1c-10.3,0.9-20.2-1.5-29.7-6.3l0.9-1.9c60.3,0.2,159.5-200,188-243.3l1.2-0.7
								c7.5,12.2,14.9,25.3,22.3,39l-0.6,0.3c0,0-91.2,179-182,213C2028.1,327.1,2028.1,327.1,2028,327.1z"/>
							<path class="st3" d="M1936.7,257.3c17.1,25.3,38.1,51.6,61.6,63.4c9.5,4.8,19.4,7.3,29.7,6.3c-9.8,3.6-19.5,5.6-29.1,5.4
								c-26.8-0.3-53.7-22-80.5-53.9c-7.8-9.3-15.7-19.6-23.4-30.4C1825.3,151.3,1757.4,5.7,1696.6,5l0.1-5c29.4,0.4,54.8,8.6,79,30
								c55.6,49.3,92,120.1,132.1,181.6c1.7,2.5,3.4,5.3,5.2,8.2C1919.7,230.6,1927.6,243.8,1936.7,257.3z"/>
							<path class="st3" d="M1918.4,278.6c-24.2,25.8-54.8,50.7-91.3,46.8c-5.4-0.6-10.6-1.5-15.7-2.9c23.4-9.1,60.4-39.6,83.6-74.4
								C1902.7,259,1910.6,269.2,1918.4,278.6z"/>
						</g>
						<g>
							<path class="st4" d="M1912.8,220.1c0.1-0.1,0.1-0.1,0.1-0.2c58.6-93.6,127.6-219.2,188.6-219.2c2.7,0,5.4,0.2,8,0.6
								c5.2,0.8,10.4,2.4,15.4,4.7c23.2,10.6,43.7,36.3,63.6,68.8c7.5,12.2,14.9,25.3,22.3,39c39.7,73.5,80,162.4,137.3,200.2
								c17.5,11.6,36.6,20.3,57.6,20.3c2.2,0,4.3-0.1,6.3-0.2c53.4-2.7,79.8-39.9,82.3-43.7c0.2-0.2,0.3-0.3,0.3-0.3"/>
							<path class="st4" d="M2495.5,226.3c15.5-22.5,103.8-190.7,148.2-200.6l16.9,19.8c-21.1,8.2-130.1,193.8-145.6,216.2"/>
							<path class="st4" d="M2397.3,327.1c25.3-14.5,63.9-50.5,74.1-65.1c0.1-0.1,0.1-0.2,0.2-0.3"/>
							<path class="st4" d="M2028,327.1c-9.8,3.6-19.5,5.6-29.1,5.4c-26.8-0.3-53.7-22-80.5-53.9c-7.8-9.3-15.7-19.6-23.4-30.4
								C1825.3,151.3,1757.4,5.7,1696.6,5"/>
							<path class="st4" d="M2210.2,114.1c0,0-91.2,179-182,213"/>
							<path class="st4" d="M2230.2,82.6c0.3-0.6,0.7-1,1.1-1.7c13.7-20.6,48.9-64.1,68.8-67.3c0.7-0.1,1.3-0.2,2-0.2"/>
							<path class="st4" d="M2585.9,332.5c-38-0.1-67.3-16.6-91.6-42.1c-8.2-8.6-15.8-18.1-22.9-28.4
								c-45.9-65.7-75-161.2-123.4-213.6c-13.9-15-29.8-27.9-47.9-34.7c-7-2.7-14.2-4.4-21.9-5c-28.9-2.4-57.4,22.7-72,40.3
								c-0.1,0.1-0.3,0.3-0.4,0.5"/>
							<path class="st4" d="M2278.2,8.7c31-7.7,49.1-2.2,69.8,10c45.2,26.9,92.1,127.7,142.1,208c7.9,12.6,15.8,24.7,23.8,35.9
								c23.7,33.1,47.9,58.7,73.1,67.3c6.9,2.4,13.9,3.4,20.9,3"/>
							<path class="st4" d="M2187.3,75.5c-28.5,43.3-127.8,243.5-188,243.3"/>
							<path class="st4" d="M1936.6,257.4c0.1-0.1,0.1-0.1,0.1-0.1c75.6-95,130.4-251.1,188.1-251.1"/>
							<path class="st4" d="M1669.5,179.8c29.7,52.8,76,126.2,141.9,142.8c5.1,1.3,10.3,2.3,15.7,2.9c36.6,3.9,67.1-21,91.3-46.8
								l0.1-0.1"/>
							<path class="st4" d="M1798.3,325.4c3.5,0.1,8-0.8,13-2.9c23.4-9.1,60.4-39.6,83.6-74.4c0.1-0.2,0.2-0.3,0.3-0.6"/>
							<path class="st4" d="M2028.2,327.1c-0.1,0-0.1,0-0.1,0c-10.3,0.9-20.2-1.5-29.7-6.3c-23.5-11.9-44.5-38.1-61.6-63.4
								c-9.1-13.5-17.1-26.7-23.8-37.4c-1.8-2.9-3.6-5.7-5.2-8.2c-40.1-61.5-76.5-132.3-132.1-181.6c-24.1-21.4-49.5-29.6-79-30
								c-8.4-0.1-17.2,0.4-26.4,1.5"/>
							<path class="st4" d="M2424.6,336.3c-4.3-0.1-8.4-0.8-12.6-2.2c-5-1.5-9.9-4-14.7-7c-17.2-11.2-33.4-31.2-49.3-53.4
								c-38.7-53.7-74.9-133.3-116.7-192.6c-8.2-11.6-16.5-22.3-25.1-32c-28.6-32.2-60.1-52.1-96.6-47.6c-0.2,0-0.3,0.1-0.6,0.1"/>
						</g>
					</g>
					<g>
						<line class="st1" x1="2431.4" y1="263.4" x2="2431.4" y2="308.8"/>
						<line class="st2" x1="2431.4" y1="263.4" x2="2431.4" y2="308.8"/>
					</g>
					<g>
						<line class="st1" x1="2263.7" y1="23.3" x2="2263.7" y2="72"/>
						<line class="st2" x1="2263.7" y1="23.3" x2="2263.7" y2="72"/>
					</g>
					<g>
						<line class="st1" x1="2146.3" y1="94.7" x2="2146.3" y2="170.5"/>
						<line class="st2" x1="2146.3" y1="94.7" x2="2146.3" y2="170.5"/>
					</g>
					<g>
						<line class="st1" x1="2087.6" y1="153.1" x2="2087.6" y2="265.2"/>
						<line class="st2" x1="2087.6" y1="153.1" x2="2087.6" y2="265.2"/>
					</g>
					<g>
						<line class="st1" x1="2087.6" y1="17.4" x2="2087.6" y2="130.3"/>
						<line class="st2" x1="2087.6" y1="17.4" x2="2087.6" y2="130.3"/>
					</g>
					<g>
						<line class="st1" x1="2024.7" y1="211.8" x2="2024.7" y2="316.7"/>
						<line class="st2" x1="2024.7" y1="211.8" x2="2024.7" y2="316.7"/>
					</g>
					<g>
						<line class="st1" x1="2024.7" y1="91.9" x2="2024.7" y2="189"/>
						<line class="st2" x1="2024.7" y1="91.9" x2="2024.7" y2="189"/>
					</g>
					<g>
						<line class="st1" x1="1857" y1="263.4" x2="1857" y2="307.2"/>
						<line class="st2" x1="1857" y1="263.4" x2="1857" y2="307.2"/>
					</g>
					<g>
						<line class="st1" x1="2544.6" y1="182.5" x2="2544.6" y2="240.6"/>
						<line class="st2" x1="2544.6" y1="182.5" x2="2544.6" y2="240.6"/>
					</g>
					<g>
						<line class="st1" x1="1970.3" y1="181.7" x2="1970.3" y2="240.6"/>
						<line class="st2" x1="1970.3" y1="181.7" x2="1970.3" y2="240.6"/>
					</g>
					<path class="st5" d="M1543.3,6.6c-5-2.4-10.3-4-15.6-4.7V1.9c36.6-4.8,67.8,15.8,95.8,48.6c8.1,9.4,15.9,19.9,23.5,31.1
						c59.4,87.4,106.7,215.7,169,243.4c8,3.6,20.5,5.5,29.1,5.4c0,0-21.3,1.6-27.1,1.6c-90.3,0-136.9-120-188.6-216.6
						c-7.5-13.8-14.8-27.1-22.3-39.3C1587.1,43.1,1566.5,17.2,1543.3,6.6z"/>
				</g>
			</g>
			<g>
				<defs>
					<rect id="SVGID_5_" x="1761" width="587" height="334.3"/>
				</defs>
				<clipPath id="SVGID_6_">
					<use xlink:href="#SVGID_5_"  style="overflow:visible;"/>
				</clipPath>
			</g>
		</g>
		<g>
			<g>
				<defs>
					<rect id="SVGID_7_" x="1174" width="587" height="334.3"/>
				</defs>
				<clipPath id="SVGID_8_">
					<use xlink:href="#SVGID_7_"  style="overflow:visible;"/>
				</clipPath>
			</g>
			<g>
				<defs>
					<rect id="SVGID_9_" x="1174" width="587" height="334.3"/>
				</defs>
				<clipPath id="SVGID_10_">
					<use xlink:href="#SVGID_9_"  style="overflow:visible;"/>
				</clipPath>
				<g class="st6">
					<g>
						<line class="st1" x1="1142.1" y1="11" x2="1142.1" y2="130.3"/>
						<line class="st2" x1="1142.1" y1="11" x2="1142.1" y2="130.3"/>
					</g>
					<g>
						<line class="st1" x1="1142.1" y1="153.1" x2="1142.1" y2="250.8"/>
						<line class="st2" x1="1142.1" y1="153.1" x2="1142.1" y2="250.8"/>
					</g>
					<g>
						<line class="st1" x1="1206.4" y1="82" x2="1206.4" y2="189"/>
						<line class="st2" x1="1206.4" y1="82" x2="1206.4" y2="189"/>
					</g>
					<g>
						<line class="st1" x1="1206.4" y1="211.8" x2="1206.4" y2="309.5"/>
						<line class="st2" x1="1206.4" y1="211.8" x2="1206.4" y2="309.5"/>
					</g>
					<g>
						<line class="st1" x1="1957.6" y1="263.4" x2="1957.6" y2="308"/>
						<line class="st2" x1="1957.6" y1="263.4" x2="1957.6" y2="308"/>
					</g>
					<g>
						<line class="st1" x1="1844.4" y1="168.4" x2="1844.4" y2="240.6"/>
						<line class="st2" x1="1844.4" y1="168.4" x2="1844.4" y2="240.6"/>
					</g>
					<g>
						<line class="st1" x1="1789.9" y1="82" x2="1789.9" y2="189"/>
						<line class="st2" x1="1789.9" y1="82" x2="1789.9" y2="189"/>
					</g>
					<g>
						<line class="st1" x1="1727" y1="16.4" x2="1727" y2="130.3"/>
						<line class="st2" x1="1727" y1="16.4" x2="1727" y2="130.3"/>
					</g>
					<g>
						<line class="st1" x1="1789.9" y1="211.8" x2="1789.9" y2="314"/>
						<line class="st2" x1="1789.9" y1="211.8" x2="1789.9" y2="314"/>
					</g>
					<g>
						<line class="st1" x1="1727" y1="153.1" x2="1727" y2="258.6"/>
						<line class="st2" x1="1727" y1="153.1" x2="1727" y2="258.6"/>
					</g>
					<g>
						<line class="st1" x1="1676.7" y1="94.7" x2="1676.7" y2="139.9"/>
						<line class="st2" x1="1676.7" y1="94.7" x2="1676.7" y2="139.9"/>
					</g>
					<g>
						<line class="st1" x1="1559.3" y1="16.2" x2="1559.3" y2="72"/>
						<line class="st2" x1="1559.3" y1="16.2" x2="1559.3" y2="72"/>
					</g>
					<g>
						<line class="st1" x1="1383.2" y1="263.4" x2="1383.2" y2="311.9"/>
						<line class="st2" x1="1383.2" y1="263.4" x2="1383.2" y2="311.9"/>
					</g>
					<g>
						<line class="st1" x1="1270" y1="186.5" x2="1270" y2="240.6"/>
						<line class="st2" x1="1270" y1="186.5" x2="1270" y2="240.6"/>
					</g>
					<g>
						<g>
							<path class="st3" d="M2056.7,25.7l16.9,19.8c-21.1,8.2-130.1,193.8-145.6,216.2l-1.2,0.8c-8-11.2-15.9-23.3-23.8-35.9
								l5.4-0.4C1924,203.8,2012.3,35.6,2056.7,25.7z"/>
							<path class="st3" d="M1810.3,327.1c25.3-14.5,63.9-50.5,74.1-65.1c7.1,10.3,14.7,19.8,22.9,28.4c-2.5,3.8-28.9,41-82.3,43.7
								C1820,332.6,1815.2,330.1,1810.3,327.1z"/>
							<path class="st3" d="M1810.3,327.1c4.8,3.1,9.7,5.5,14.7,7c-2.1,0.1-4.2,0.2-6.3,0.2c-21.1,0-40.1-8.7-57.6-20.3
								c-57.3-37.8-97.6-126.7-137.3-200.2c-7.4-13.7-14.8-26.8-22.3-39c-19.9-32.5-40.4-58.2-63.6-68.8c-5-2.3-10.1-3.9-15.4-4.7
								c36.6-4.5,68,15.4,96.6,47.6c8.6,9.7,17,20.4,25.1,32c41.8,59.4,78,138.9,116.7,192.6C1777,295.9,1793.1,315.9,1810.3,327.1z
								"/>
							<path class="st3" d="M1907.3,290.4c-8.2-8.6-15.8-18.1-22.9-28.4c-45.9-65.7-75-161.2-123.4-213.6
								c-13.9-15-29.8-27.9-47.9-34.7c-7-2.7-14.2-4.4-21.9-5c31-7.7,49.1-2.2,69.8,10c45.2,26.9,92.1,127.7,142.1,208
								c7.9,12.6,15.8,24.7,23.8,35.9c23.7,33.1,47.9,58.7,73.1,67.3l-1,2.7C1961,332.4,1931.7,315.9,1907.3,290.4z"/>
							<path class="st3" d="M1691.2,8.7c7.7,0.6,14.9,2.4,21.9,5c-19.9,3.1-55.1,46.7-68.8,67.3c-8.2-11.6-16.5-22.3-25.1-32
								C1633.9,31.4,1662.3,6.2,1691.2,8.7z"/>
							<path class="st3" d="M1326,219.9c58.6-93.6,127.6-219.2,188.6-219.2c2.7,0,5.4,0.2,8,0.6c5.2,0.8,10.4,2.4,15.4,4.7l-0.1,0.1
								c-57.7,0-112.5,156.1-188.1,251.1C1340.6,243.8,1332.7,230.6,1326,219.9z"/>
							<path class="st3" d="M1441,327.1c-10.3,0.9-20.2-1.5-29.7-6.3l0.9-1.9c60.3,0.2,159.5-200,188-243.3l1.2-0.7
								c7.5,12.2,14.9,25.3,22.3,39l-0.6,0.3c0,0-91.2,179-182,213C1441.1,327.1,1441.1,327.1,1441,327.1z"/>
							<path class="st3" d="M1349.7,257.3c17.1,25.3,38.1,51.6,61.6,63.4c9.5,4.8,19.4,7.3,29.7,6.3c-9.8,3.6-19.5,5.6-29.1,5.4
								c-26.8-0.3-53.7-22-80.5-53.9c-7.8-9.3-15.7-19.6-23.4-30.4C1238.3,151.3,1170.4,5.7,1109.6,5l0.1-5c29.4,0.4,54.8,8.6,79,30
								c55.6,49.3,92,120.1,132.1,181.6c1.7,2.5,3.4,5.3,5.2,8.2C1332.7,230.6,1340.6,243.8,1349.7,257.3z"/>
							<path class="st3" d="M1331.4,278.6c-24.2,25.8-54.8,50.7-91.3,46.8c-5.4-0.6-10.6-1.5-15.7-2.9c23.4-9.1,60.4-39.6,83.6-74.4
								C1315.7,259,1323.6,269.2,1331.4,278.6z"/>
						</g>
						<g>
							<path class="st4" d="M1325.8,220.1c0.1-0.1,0.1-0.1,0.1-0.2c58.6-93.6,127.6-219.2,188.6-219.2c2.7,0,5.4,0.2,8,0.6
								c5.2,0.8,10.4,2.4,15.4,4.7c23.2,10.6,43.7,36.3,63.6,68.8c7.5,12.2,14.9,25.3,22.3,39c39.7,73.5,80,162.4,137.3,200.2
								c17.5,11.6,36.6,20.3,57.6,20.3c2.2,0,4.3-0.1,6.3-0.2c53.4-2.7,79.8-39.9,82.3-43.7c0.2-0.2,0.3-0.3,0.3-0.3"/>
							<path class="st4" d="M1908.5,226.3c15.5-22.5,103.8-190.7,148.2-200.6l16.9,19.8c-21.1,8.2-130.1,193.8-145.6,216.2"/>
							<path class="st4" d="M1810.3,327.1c25.3-14.5,63.9-50.5,74.1-65.1c0.1-0.1,0.1-0.2,0.2-0.3"/>
							<path class="st4" d="M1441,327.1c-9.8,3.6-19.5,5.6-29.1,5.4c-26.8-0.3-53.7-22-80.5-53.9c-7.8-9.3-15.7-19.6-23.4-30.4
								C1238.3,151.3,1170.4,5.7,1109.6,5"/>
							<path class="st4" d="M1623.2,114.1c0,0-91.2,179-182,213"/>
							<path class="st4" d="M1643.2,82.6c0.3-0.6,0.7-1,1.1-1.7c13.7-20.6,48.9-64.1,68.8-67.3c0.7-0.1,1.3-0.2,2-0.2"/>
							<path class="st4" d="M1998.9,332.5c-38-0.1-67.3-16.6-91.6-42.1c-8.2-8.6-15.8-18.1-22.9-28.4
								c-45.9-65.7-75-161.2-123.4-213.6c-13.9-15-29.8-27.9-47.9-34.7c-7-2.7-14.2-4.4-21.9-5c-28.9-2.4-57.4,22.7-72,40.3
								c-0.1,0.1-0.3,0.3-0.4,0.5"/>
							<path class="st4" d="M1691.2,8.7c31-7.7,49.1-2.2,69.8,10c45.2,26.9,92.1,127.7,142.1,208c7.9,12.6,15.8,24.7,23.8,35.9
								c23.7,33.1,47.9,58.7,73.1,67.3c6.9,2.4,13.9,3.4,20.9,3"/>
							<path class="st4" d="M1600.3,75.5c-28.5,43.3-127.8,243.5-188,243.3"/>
							<path class="st4" d="M1349.6,257.4c0.1-0.1,0.1-0.1,0.1-0.1c75.6-95,130.4-251.1,188.1-251.1"/>
							<path class="st4" d="M1082.5,179.8c29.7,52.8,76,126.2,141.9,142.8c5.1,1.3,10.3,2.3,15.7,2.9c36.6,3.9,67.1-21,91.3-46.8
								l0.1-0.1"/>
							<path class="st4" d="M1211.3,325.4c3.5,0.1,8-0.8,13-2.9c23.4-9.1,60.4-39.6,83.6-74.4c0.1-0.2,0.2-0.3,0.3-0.6"/>
							<path class="st4" d="M1441.2,327.1c-0.1,0-0.1,0-0.1,0c-10.3,0.9-20.2-1.5-29.7-6.3c-23.5-11.9-44.5-38.1-61.6-63.4
								c-9.1-13.5-17.1-26.7-23.8-37.4c-1.8-2.9-3.6-5.7-5.2-8.2c-40.1-61.5-76.5-132.3-132.1-181.6c-24.1-21.4-49.5-29.6-79-30
								c-8.4-0.1-17.2,0.4-26.4,1.5"/>
							<path class="st4" d="M1837.6,336.3c-4.3-0.1-8.4-0.8-12.6-2.2c-5-1.5-9.9-4-14.7-7c-17.2-11.2-33.4-31.2-49.3-53.4
								c-38.7-53.7-74.9-133.3-116.7-192.6c-8.2-11.6-16.5-22.3-25.1-32c-28.6-32.2-60.1-52.1-96.6-47.6c-0.2,0-0.3,0.1-0.6,0.1"/>
						</g>
					</g>
					<g>
						<line class="st1" x1="1844.4" y1="263.4" x2="1844.4" y2="308.8"/>
						<line class="st2" x1="1844.4" y1="263.4" x2="1844.4" y2="308.8"/>
					</g>
					<g>
						<line class="st1" x1="1676.7" y1="23.3" x2="1676.7" y2="72"/>
						<line class="st2" x1="1676.7" y1="23.3" x2="1676.7" y2="72"/>
					</g>
					<g>
						<line class="st1" x1="1559.3" y1="94.7" x2="1559.3" y2="170.5"/>
						<line class="st2" x1="1559.3" y1="94.7" x2="1559.3" y2="170.5"/>
					</g>
					<g>
						<line class="st1" x1="1500.6" y1="153.1" x2="1500.6" y2="265.2"/>
						<line class="st2" x1="1500.6" y1="153.1" x2="1500.6" y2="265.2"/>
					</g>
					<g>
						<line class="st1" x1="1500.6" y1="17.4" x2="1500.6" y2="130.3"/>
						<line class="st2" x1="1500.6" y1="17.4" x2="1500.6" y2="130.3"/>
					</g>
					<g>
						<line class="st1" x1="1437.7" y1="211.8" x2="1437.7" y2="316.7"/>
						<line class="st2" x1="1437.7" y1="211.8" x2="1437.7" y2="316.7"/>
					</g>
					<g>
						<line class="st1" x1="1437.7" y1="91.9" x2="1437.7" y2="189"/>
						<line class="st2" x1="1437.7" y1="91.9" x2="1437.7" y2="189"/>
					</g>
					<g>
						<line class="st1" x1="1270" y1="263.4" x2="1270" y2="307.2"/>
						<line class="st2" x1="1270" y1="263.4" x2="1270" y2="307.2"/>
					</g>
					<g>
						<line class="st1" x1="1957.6" y1="182.5" x2="1957.6" y2="240.6"/>
						<line class="st2" x1="1957.6" y1="182.5" x2="1957.6" y2="240.6"/>
					</g>
					<g>
						<line class="st1" x1="1383.3" y1="181.7" x2="1383.3" y2="240.6"/>
						<line class="st2" x1="1383.3" y1="181.7" x2="1383.3" y2="240.6"/>
					</g>
					<path class="st5" d="M956.3,6.6c-5-2.4-10.3-4-15.6-4.7V1.9c36.6-4.8,67.8,15.8,95.8,48.6c8.1,9.4,15.9,19.9,23.5,31.1
						c59.4,87.4,106.7,215.7,169,243.4c8,3.6,20.5,5.5,29.1,5.4c0,0-21.3,1.6-27.1,1.6c-90.3,0-136.9-120-188.6-216.6
						c-7.5-13.8-14.8-27.1-22.3-39.3C1000.1,43.1,979.5,17.2,956.3,6.6z"/>
				</g>
			</g>
			<g>
				<defs>
					<rect id="SVGID_11_" x="1174" width="587" height="334.3"/>
				</defs>
				<clipPath id="SVGID_12_">
					<use xlink:href="#SVGID_11_"  style="overflow:visible;"/>
				</clipPath>
			</g>
		</g>
		<g>
			<g>
				<defs>
					<rect id="SVGID_13_" x="587" width="587" height="334.3"/>
				</defs>
				<clipPath id="SVGID_14_">
					<use xlink:href="#SVGID_13_"  style="overflow:visible;"/>
				</clipPath>
			</g>
			<g>
				<defs>
					<rect id="SVGID_15_" x="587" width="587" height="334.3"/>
				</defs>
				<clipPath id="SVGID_16_">
					<use xlink:href="#SVGID_15_"  style="overflow:visible;"/>
				</clipPath>
				<g class="st7">
					<g>
						<line class="st1" x1="555.1" y1="11" x2="555.1" y2="130.3"/>
						<line class="st2" x1="555.1" y1="11" x2="555.1" y2="130.3"/>
					</g>
					<g>
						<line class="st1" x1="555.1" y1="153.1" x2="555.1" y2="250.8"/>
						<line class="st2" x1="555.1" y1="153.1" x2="555.1" y2="250.8"/>
					</g>
					<g>
						<line class="st1" x1="619.4" y1="82" x2="619.4" y2="189"/>
						<line class="st2" x1="619.4" y1="82" x2="619.4" y2="189"/>
					</g>
					<g>
						<line class="st1" x1="619.4" y1="211.8" x2="619.4" y2="309.5"/>
						<line class="st2" x1="619.4" y1="211.8" x2="619.4" y2="309.5"/>
					</g>
					<g>
						<line class="st1" x1="1370.6" y1="263.4" x2="1370.6" y2="308"/>
						<line class="st2" x1="1370.6" y1="263.4" x2="1370.6" y2="308"/>
					</g>
					<g>
						<line class="st1" x1="1257.4" y1="168.4" x2="1257.4" y2="240.6"/>
						<line class="st2" x1="1257.4" y1="168.4" x2="1257.4" y2="240.6"/>
					</g>
					<g>
						<line class="st1" x1="1202.9" y1="82" x2="1202.9" y2="189"/>
						<line class="st2" x1="1202.9" y1="82" x2="1202.9" y2="189"/>
					</g>
					<g>
						<line class="st1" x1="1140" y1="16.4" x2="1140" y2="130.3"/>
						<line class="st2" x1="1140" y1="16.4" x2="1140" y2="130.3"/>
					</g>
					<g>
						<line class="st1" x1="1202.9" y1="211.8" x2="1202.9" y2="314"/>
						<line class="st2" x1="1202.9" y1="211.8" x2="1202.9" y2="314"/>
					</g>
					<g>
						<line class="st1" x1="1140" y1="153.1" x2="1140" y2="258.6"/>
						<line class="st2" x1="1140" y1="153.1" x2="1140" y2="258.6"/>
					</g>
					<g>
						<line class="st1" x1="1089.7" y1="94.7" x2="1089.7" y2="139.9"/>
						<line class="st2" x1="1089.7" y1="94.7" x2="1089.7" y2="139.9"/>
					</g>
					<g>
						<line class="st1" x1="972.3" y1="16.2" x2="972.3" y2="72"/>
						<line class="st2" x1="972.3" y1="16.2" x2="972.3" y2="72"/>
					</g>
					<g>
						<line class="st1" x1="796.2" y1="263.4" x2="796.2" y2="311.9"/>
						<line class="st2" x1="796.2" y1="263.4" x2="796.2" y2="311.9"/>
					</g>
					<g>
						<line class="st1" x1="683" y1="186.5" x2="683" y2="240.6"/>
						<line class="st2" x1="683" y1="186.5" x2="683" y2="240.6"/>
					</g>
					<g>
						<g>
							<path class="st3" d="M1469.7,25.7l16.9,19.8c-21.1,8.2-130.1,193.8-145.6,216.2l-1.2,0.8c-8-11.2-15.9-23.3-23.8-35.9
								l5.4-0.4C1337,203.8,1425.3,35.6,1469.7,25.7z"/>
							<path class="st3" d="M1223.3,327.1c25.3-14.5,63.9-50.5,74.1-65.1c7.1,10.3,14.7,19.8,22.9,28.4c-2.5,3.8-28.9,41-82.3,43.7
								C1233,332.6,1228.2,330.1,1223.3,327.1z"/>
							<path class="st3" d="M1223.3,327.1c4.8,3.1,9.7,5.5,14.7,7c-2.1,0.1-4.2,0.2-6.3,0.2c-21.1,0-40.1-8.7-57.6-20.3
								c-57.3-37.8-97.6-126.7-137.3-200.2c-7.4-13.7-14.8-26.8-22.3-39C994.6,42.3,974.1,16.6,950.9,6c-5-2.3-10.1-3.9-15.4-4.7
								c36.6-4.5,68,15.4,96.6,47.6c8.6,9.7,17,20.4,25.1,32c41.8,59.4,78,138.9,116.7,192.6C1190,295.9,1206.1,315.9,1223.3,327.1z
								"/>
							<path class="st3" d="M1320.3,290.4c-8.2-8.6-15.8-18.1-22.9-28.4c-45.9-65.7-75-161.2-123.4-213.6
								c-13.9-15-29.8-27.9-47.9-34.7c-7-2.7-14.2-4.4-21.9-5c31-7.7,49.1-2.2,69.8,10c45.2,26.9,92.1,127.7,142.1,208
								c7.9,12.6,15.8,24.7,23.8,35.9c23.7,33.1,47.9,58.7,73.1,67.3l-1,2.7C1374,332.4,1344.7,315.9,1320.3,290.4z"/>
							<path class="st3" d="M1104.2,8.7c7.7,0.6,14.9,2.4,21.9,5c-19.9,3.1-55.1,46.7-68.8,67.3c-8.2-11.6-16.5-22.3-25.1-32
								C1046.9,31.4,1075.3,6.2,1104.2,8.7z"/>
							<path class="st3" d="M739,219.9C797.6,126.3,866.6,0.7,927.6,0.7c2.7,0,5.4,0.2,8,0.6c5.2,0.8,10.4,2.4,15.4,4.7l-0.1,0.1
								c-57.7,0-112.5,156.1-188.1,251.1C753.6,243.8,745.7,230.6,739,219.9z"/>
							<path class="st3" d="M854,327.1c-10.3,0.9-20.2-1.5-29.7-6.3l0.9-1.9c60.3,0.2,159.5-200,188-243.3l1.2-0.7
								c7.5,12.2,14.9,25.3,22.3,39l-0.6,0.3c0,0-91.2,179-182,213C854.1,327.1,854.1,327.1,854,327.1z"/>
							<path class="st3" d="M762.7,257.3c17.1,25.3,38.1,51.6,61.6,63.4c9.5,4.8,19.4,7.3,29.7,6.3c-9.8,3.6-19.5,5.6-29.1,5.4
								c-26.8-0.3-53.7-22-80.5-53.9c-7.8-9.3-15.7-19.6-23.4-30.4C651.3,151.3,583.4,5.7,522.6,5l0.1-5c29.4,0.4,54.8,8.6,79,30
								c55.6,49.3,92,120.1,132.1,181.6c1.7,2.5,3.4,5.3,5.2,8.2C745.7,230.6,753.6,243.8,762.7,257.3z"/>
							<path class="st3" d="M744.4,278.6c-24.2,25.8-54.8,50.7-91.3,46.8c-5.4-0.6-10.6-1.5-15.7-2.9c23.4-9.1,60.4-39.6,83.6-74.4
								C728.7,259,736.6,269.2,744.4,278.6z"/>
						</g>
						<g>
							<path class="st4" d="M738.8,220.1c0.1-0.1,0.1-0.1,0.1-0.2C797.6,126.3,866.6,0.7,927.6,0.7c2.7,0,5.4,0.2,8,0.6
								c5.2,0.8,10.4,2.4,15.4,4.7c23.2,10.6,43.7,36.3,63.6,68.8c7.5,12.2,14.9,25.3,22.3,39c39.7,73.5,80,162.4,137.3,200.2
								c17.5,11.6,36.6,20.3,57.6,20.3c2.2,0,4.3-0.1,6.3-0.2c53.4-2.7,79.8-39.9,82.3-43.7c0.2-0.2,0.3-0.3,0.3-0.3"/>
							<path class="st4" d="M1321.5,226.3c15.5-22.5,103.8-190.7,148.2-200.6l16.9,19.8c-21.1,8.2-130.1,193.8-145.6,216.2"/>
							<path class="st4" d="M1223.3,327.1c25.3-14.5,63.9-50.5,74.1-65.1c0.1-0.1,0.1-0.2,0.2-0.3"/>
							<path class="st4" d="M854,327.1c-9.8,3.6-19.5,5.6-29.1,5.4c-26.8-0.3-53.7-22-80.5-53.9c-7.8-9.3-15.7-19.6-23.4-30.4
								C651.3,151.3,583.4,5.7,522.6,5"/>
							<path class="st4" d="M1036.2,114.1c0,0-91.2,179-182,213"/>
							<path class="st4" d="M1056.2,82.6c0.3-0.6,0.7-1,1.1-1.7c13.7-20.6,48.9-64.1,68.8-67.3c0.7-0.1,1.3-0.2,2-0.2"/>
							<path class="st4" d="M1411.9,332.5c-38-0.1-67.3-16.6-91.6-42.1c-8.2-8.6-15.8-18.1-22.9-28.4
								c-45.9-65.7-75-161.2-123.4-213.6c-13.9-15-29.8-27.9-47.9-34.7c-7-2.7-14.2-4.4-21.9-5c-28.9-2.4-57.4,22.7-72,40.3
								c-0.1,0.1-0.3,0.3-0.4,0.5"/>
							<path class="st4" d="M1104.2,8.7c31-7.7,49.1-2.2,69.8,10c45.2,26.9,92.1,127.7,142.1,208c7.9,12.6,15.8,24.7,23.8,35.9
								c23.7,33.1,47.9,58.7,73.1,67.3c6.9,2.4,13.9,3.4,20.9,3"/>
							<path class="st4" d="M1013.3,75.5c-28.5,43.3-127.8,243.5-188,243.3"/>
							<path class="st4" d="M762.6,257.4c0.1-0.1,0.1-0.1,0.1-0.1c75.6-95,130.4-251.1,188.1-251.1"/>
							<path class="st4" d="M495.5,179.8c29.7,52.8,76,126.2,141.9,142.8c5.1,1.3,10.3,2.3,15.7,2.9c36.6,3.9,67.1-21,91.3-46.8
								l0.1-0.1"/>
							<path class="st4" d="M624.3,325.4c3.5,0.1,8-0.8,13-2.9c23.4-9.1,60.4-39.6,83.6-74.4c0.1-0.2,0.2-0.3,0.3-0.6"/>
							<path class="st4" d="M854.2,327.1c-0.1,0-0.1,0-0.1,0c-10.3,0.9-20.2-1.5-29.7-6.3c-23.5-11.9-44.5-38.1-61.6-63.4
								c-9.1-13.5-17.1-26.7-23.8-37.4c-1.8-2.9-3.6-5.7-5.2-8.2C693.6,150.1,657.2,79.4,601.6,30c-24.1-21.4-49.5-29.6-79-30
								c-8.4-0.1-17.2,0.4-26.4,1.5"/>
							<path class="st4" d="M1250.6,336.3c-4.3-0.1-8.4-0.8-12.6-2.2c-5-1.5-9.9-4-14.7-7c-17.2-11.2-33.4-31.2-49.3-53.4
								c-38.7-53.7-74.9-133.3-116.7-192.6c-8.2-11.6-16.5-22.3-25.1-32c-28.6-32.2-60.1-52.1-96.6-47.6c-0.2,0-0.3,0.1-0.6,0.1"/>
						</g>
					</g>
					<g>
						<line class="st1" x1="1257.4" y1="263.4" x2="1257.4" y2="308.8"/>
						<line class="st2" x1="1257.4" y1="263.4" x2="1257.4" y2="308.8"/>
					</g>
					<g>
						<line class="st1" x1="1089.7" y1="23.3" x2="1089.7" y2="72"/>
						<line class="st2" x1="1089.7" y1="23.3" x2="1089.7" y2="72"/>
					</g>
					<g>
						<line class="st1" x1="972.3" y1="94.7" x2="972.3" y2="170.5"/>
						<line class="st2" x1="972.3" y1="94.7" x2="972.3" y2="170.5"/>
					</g>
					<g>
						<line class="st1" x1="913.6" y1="153.1" x2="913.6" y2="265.2"/>
						<line class="st2" x1="913.6" y1="153.1" x2="913.6" y2="265.2"/>
					</g>
					<g>
						<line class="st1" x1="913.6" y1="17.4" x2="913.6" y2="130.3"/>
						<line class="st2" x1="913.6" y1="17.4" x2="913.6" y2="130.3"/>
					</g>
					<g>
						<line class="st1" x1="850.7" y1="211.8" x2="850.7" y2="316.7"/>
						<line class="st2" x1="850.7" y1="211.8" x2="850.7" y2="316.7"/>
					</g>
					<g>
						<line class="st1" x1="850.7" y1="91.9" x2="850.7" y2="189"/>
						<line class="st2" x1="850.7" y1="91.9" x2="850.7" y2="189"/>
					</g>
					<g>
						<line class="st1" x1="683" y1="263.4" x2="683" y2="307.2"/>
						<line class="st2" x1="683" y1="263.4" x2="683" y2="307.2"/>
					</g>
					<g>
						<line class="st1" x1="1370.6" y1="182.5" x2="1370.6" y2="240.6"/>
						<line class="st2" x1="1370.6" y1="182.5" x2="1370.6" y2="240.6"/>
					</g>
					<g>
						<line class="st1" x1="796.3" y1="181.7" x2="796.3" y2="240.6"/>
						<line class="st2" x1="796.3" y1="181.7" x2="796.3" y2="240.6"/>
					</g>
					<path class="st5" d="M369.3,6.6c-5-2.4-10.3-4-15.6-4.7V1.9c36.6-4.8,67.8,15.8,95.8,48.6c8.1,9.4,15.9,19.9,23.5,31.1
						c59.4,87.4,106.7,215.7,169,243.4c8,3.6,20.5,5.5,29.1,5.4c0,0-21.3,1.6-27.1,1.6c-90.3,0-136.9-120-188.6-216.6
						c-7.5-13.8-14.8-27.1-22.3-39.3C413.1,43.1,392.5,17.2,369.3,6.6z"/>
				</g>
			</g>
			<g>
				<defs>
					<rect id="SVGID_17_" x="587" width="587" height="334.3"/>
				</defs>
				<clipPath id="SVGID_18_">
					<use xlink:href="#SVGID_17_"  style="overflow:visible;"/>
				</clipPath>
			</g>
		</g>
		<g>
			<g>
				<defs>
					<rect id="SVGID_19_" width="587" height="334.3"/>
				</defs>
				<clipPath id="SVGID_20_">
					<use xlink:href="#SVGID_19_"  style="overflow:visible;"/>
				</clipPath>
			</g>
			<g>
				<defs>
					<rect id="SVGID_21_" width="587" height="334.3"/>
				</defs>
				<clipPath id="SVGID_22_">
					<use xlink:href="#SVGID_21_"  style="overflow:visible;"/>
				</clipPath>
				<g class="st8">
					<g>
						<line class="st1" x1="-31.9" y1="11" x2="-31.9" y2="130.3"/>
						<line class="st2" x1="-31.9" y1="11" x2="-31.9" y2="130.3"/>
					</g>
					<g>
						<line class="st1" x1="-31.9" y1="153.1" x2="-31.9" y2="250.8"/>
						<line class="st2" x1="-31.9" y1="153.1" x2="-31.9" y2="250.8"/>
					</g>
					<g>
						<line class="st1" x1="32.4" y1="82" x2="32.4" y2="189"/>
						<line class="st2" x1="32.4" y1="82" x2="32.4" y2="189"/>
					</g>
					<g>
						<line class="st1" x1="32.4" y1="211.8" x2="32.4" y2="309.5"/>
						<line class="st2" x1="32.4" y1="211.8" x2="32.4" y2="309.5"/>
					</g>
					<g>
						<line class="st1" x1="783.6" y1="263.4" x2="783.6" y2="308"/>
						<line class="st2" x1="783.6" y1="263.4" x2="783.6" y2="308"/>
					</g>
					<g>
						<line class="st1" x1="670.4" y1="168.4" x2="670.4" y2="240.6"/>
						<line class="st2" x1="670.4" y1="168.4" x2="670.4" y2="240.6"/>
					</g>
					<g>
						<line class="st1" x1="615.9" y1="82" x2="615.9" y2="189"/>
						<line class="st2" x1="615.9" y1="82" x2="615.9" y2="189"/>
					</g>
					<g>
						<line class="st1" x1="553" y1="16.4" x2="553" y2="130.3"/>
						<line class="st2" x1="553" y1="16.4" x2="553" y2="130.3"/>
					</g>
					<g>
						<line class="st1" x1="615.9" y1="211.8" x2="615.9" y2="314"/>
						<line class="st2" x1="615.9" y1="211.8" x2="615.9" y2="314"/>
					</g>
					<g>
						<line class="st1" x1="553" y1="153.1" x2="553" y2="258.6"/>
						<line class="st2" x1="553" y1="153.1" x2="553" y2="258.6"/>
					</g>
					<g>
						<line class="st1" x1="502.7" y1="94.7" x2="502.7" y2="139.9"/>
						<line class="st2" x1="502.7" y1="94.7" x2="502.7" y2="139.9"/>
					</g>
					<g>
						<line class="st1" x1="385.3" y1="16.2" x2="385.3" y2="72"/>
						<line class="st2" x1="385.3" y1="16.2" x2="385.3" y2="72"/>
					</g>
					<g>
						<line class="st1" x1="209.2" y1="263.4" x2="209.2" y2="311.9"/>
						<line class="st2" x1="209.2" y1="263.4" x2="209.2" y2="311.9"/>
					</g>
					<g>
						<line class="st1" x1="96" y1="186.5" x2="96" y2="240.6"/>
						<line class="st2" x1="96" y1="186.5" x2="96" y2="240.6"/>
					</g>
					<g>
						<g>
							<path class="st3" d="M882.7,25.7l16.9,19.8C878.5,53.7,769.5,239.3,754,261.7l-1.2,0.8c-8-11.2-15.9-23.3-23.8-35.9l5.4-0.4
								C750,203.8,838.3,35.6,882.7,25.7z"/>
							<path class="st3" d="M636.3,327.1c25.3-14.5,63.9-50.5,74.1-65.1c7.1,10.3,14.7,19.8,22.9,28.4c-2.5,3.8-28.9,41-82.3,43.7
								C646,332.6,641.2,330.1,636.3,327.1z"/>
							<path class="st3" d="M636.3,327.1c4.8,3.1,9.7,5.5,14.7,7c-2.1,0.1-4.2,0.2-6.3,0.2c-21.1,0-40.1-8.7-57.6-20.3
								c-57.3-37.8-97.6-126.7-137.3-200.2c-7.4-13.7-14.8-26.8-22.3-39C407.6,42.3,387.1,16.6,363.9,6c-5-2.3-10.1-3.9-15.4-4.7
								c36.6-4.5,68,15.4,96.6,47.6c8.6,9.7,17,20.4,25.1,32c41.8,59.4,78,138.9,116.7,192.6C603,295.9,619.1,315.9,636.3,327.1z"/>
							<path class="st3" d="M733.3,290.4c-8.2-8.6-15.8-18.1-22.9-28.4c-45.9-65.7-75-161.2-123.4-213.6
								c-13.9-15-29.8-27.9-47.9-34.7c-7-2.7-14.2-4.4-21.9-5c31-7.7,49.1-2.2,69.8,10c45.2,26.9,92.1,127.7,142.1,208
								c7.9,12.6,15.8,24.7,23.8,35.9c23.7,33.1,47.9,58.7,73.1,67.3l-1,2.7C787,332.4,757.7,315.9,733.3,290.4z"/>
							<path class="st3" d="M517.2,8.7c7.7,0.6,14.9,2.4,21.9,5c-19.9,3.1-55.1,46.7-68.8,67.3c-8.2-11.6-16.5-22.3-25.1-32
								C459.9,31.4,488.3,6.2,517.2,8.7z"/>
							<path class="st3" d="M152,219.9C210.6,126.3,279.6,0.7,340.6,0.7c2.7,0,5.4,0.2,8,0.6c5.2,0.8,10.4,2.4,15.4,4.7l-0.1,0.1
								c-57.7,0-112.5,156.1-188.1,251.1C166.6,243.8,158.7,230.6,152,219.9z"/>
							<path class="st3" d="M267,327.1c-10.3,0.9-20.2-1.5-29.7-6.3l0.9-1.9c60.3,0.2,159.5-200,188-243.3l1.2-0.7
								c7.5,12.2,14.9,25.3,22.3,39l-0.6,0.3c0,0-91.2,179-182,213C267.1,327.1,267.1,327.1,267,327.1z"/>
							<path class="st3" d="M175.7,257.3c17.1,25.3,38.1,51.6,61.6,63.4c9.5,4.8,19.4,7.3,29.7,6.3c-9.8,3.6-19.5,5.6-29.1,5.4
								c-26.8-0.3-53.7-22-80.5-53.9c-7.8-9.3-15.7-19.6-23.4-30.4C64.3,151.3-3.6,5.7-64.4,5l0.1-5c29.4,0.4,54.8,8.6,79,30
								c55.6,49.3,92,120.1,132.1,181.6c1.7,2.5,3.4,5.3,5.2,8.2C158.7,230.6,166.6,243.8,175.7,257.3z"/>
							<path class="st3" d="M157.4,278.6c-24.2,25.8-54.8,50.7-91.3,46.8c-5.4-0.6-10.6-1.5-15.7-2.9c23.4-9.1,60.4-39.6,83.6-74.4
								C141.7,259,149.6,269.2,157.4,278.6z"/>
						</g>
						<g>
							<path class="st4" d="M151.8,220.1c0.1-0.1,0.1-0.1,0.1-0.2C210.6,126.3,279.6,0.7,340.6,0.7c2.7,0,5.4,0.2,8,0.6
								c5.2,0.8,10.4,2.4,15.4,4.7c23.2,10.6,43.7,36.3,63.6,68.8c7.5,12.2,14.9,25.3,22.3,39c39.7,73.5,80,162.4,137.3,200.2
								c17.5,11.6,36.6,20.3,57.6,20.3c2.2,0,4.3-0.1,6.3-0.2c53.4-2.7,79.8-39.9,82.3-43.7c0.2-0.2,0.3-0.3,0.3-0.3"/>
							<path class="st4" d="M734.5,226.3C750,203.8,838.3,35.6,882.7,25.7l16.9,19.8C878.5,53.7,769.5,239.3,754,261.7"/>
							<path class="st4" d="M636.3,327.1c25.3-14.5,63.9-50.5,74.1-65.1c0.1-0.1,0.1-0.2,0.2-0.3"/>
							<path class="st4" d="M267,327.1c-9.8,3.6-19.5,5.6-29.1,5.4c-26.8-0.3-53.7-22-80.5-53.9c-7.8-9.3-15.7-19.6-23.4-30.4
								C64.3,151.3-3.6,5.7-64.4,5"/>
							<path class="st4" d="M449.2,114.1c0,0-91.2,179-182,213"/>
							<path class="st4" d="M469.2,82.6c0.3-0.6,0.7-1,1.1-1.7c13.7-20.6,48.9-64.1,68.8-67.3c0.7-0.1,1.3-0.2,2-0.2"/>
							<path class="st4" d="M824.9,332.5c-38-0.1-67.3-16.6-91.6-42.1c-8.2-8.6-15.8-18.1-22.9-28.4
								c-45.9-65.7-75-161.2-123.4-213.6c-13.9-15-29.8-27.9-47.9-34.7c-7-2.7-14.2-4.4-21.9-5c-28.9-2.4-57.4,22.7-72,40.3
								c-0.1,0.1-0.3,0.3-0.4,0.5"/>
							<path class="st4" d="M517.2,8.7c31-7.7,49.1-2.2,69.8,10c45.2,26.9,92.1,127.7,142.1,208c7.9,12.6,15.8,24.7,23.8,35.9
								c23.7,33.1,47.9,58.7,73.1,67.3c6.9,2.4,13.9,3.4,20.9,3"/>
							<path class="st4" d="M426.3,75.5c-28.5,43.3-127.8,243.5-188,243.3"/>
							<path class="st4" d="M175.6,257.4c0.1-0.1,0.1-0.1,0.1-0.1c75.6-95,130.4-251.1,188.1-251.1"/>
							<path class="st4" d="M-91.5,179.8c29.7,52.8,76,126.2,141.9,142.8c5.1,1.3,10.3,2.3,15.7,2.9c36.6,3.9,67.1-21,91.3-46.8
								l0.1-0.1"/>
							<path class="st4" d="M37.3,325.4c3.5,0.1,8-0.8,13-2.9c23.4-9.1,60.4-39.6,83.6-74.4c0.1-0.2,0.2-0.3,0.3-0.6"/>
							<path class="st4" d="M267.2,327.1c-0.1,0-0.1,0-0.1,0c-10.3,0.9-20.2-1.5-29.7-6.3c-23.5-11.9-44.5-38.1-61.6-63.4
								c-9.1-13.5-17.1-26.7-23.8-37.4c-1.8-2.9-3.6-5.7-5.2-8.2C106.6,150.1,70.2,79.4,14.6,30C-9.5,8.6-34.9,0.4-64.3,0
								c-8.4-0.1-17.2,0.4-26.4,1.5"/>
							<path class="st4" d="M663.6,336.3c-4.3-0.1-8.4-0.8-12.6-2.2c-5-1.5-9.9-4-14.7-7c-17.2-11.2-33.4-31.2-49.3-53.4
								C548.3,219.9,512.1,140.3,470.3,81c-8.2-11.6-16.5-22.3-25.1-32c-28.6-32.2-60.1-52.1-96.6-47.6c-0.2,0-0.3,0.1-0.6,0.1"/>
						</g>
					</g>
					<g>
						<line class="st1" x1="670.4" y1="263.4" x2="670.4" y2="308.8"/>
						<line class="st2" x1="670.4" y1="263.4" x2="670.4" y2="308.8"/>
					</g>
					<g>
						<line class="st1" x1="502.7" y1="23.3" x2="502.7" y2="72"/>
						<line class="st2" x1="502.7" y1="23.3" x2="502.7" y2="72"/>
					</g>
					<g>
						<line class="st1" x1="385.3" y1="94.7" x2="385.3" y2="170.5"/>
						<line class="st2" x1="385.3" y1="94.7" x2="385.3" y2="170.5"/>
					</g>
					<g>
						<line class="st1" x1="326.6" y1="153.1" x2="326.6" y2="265.2"/>
						<line class="st2" x1="326.6" y1="153.1" x2="326.6" y2="265.2"/>
					</g>
					<g>
						<line class="st1" x1="326.6" y1="17.4" x2="326.6" y2="130.3"/>
						<line class="st2" x1="326.6" y1="17.4" x2="326.6" y2="130.3"/>
					</g>
					<g>
						<line class="st1" x1="263.7" y1="211.8" x2="263.7" y2="316.7"/>
						<line class="st2" x1="263.7" y1="211.8" x2="263.7" y2="316.7"/>
					</g>
					<g>
						<line class="st1" x1="263.7" y1="91.9" x2="263.7" y2="189"/>
						<line class="st2" x1="263.7" y1="91.9" x2="263.7" y2="189"/>
					</g>
					<g>
						<line class="st1" x1="96" y1="263.4" x2="96" y2="307.2"/>
						<line class="st2" x1="96" y1="263.4" x2="96" y2="307.2"/>
					</g>
					<g>
						<line class="st1" x1="783.6" y1="182.5" x2="783.6" y2="240.6"/>
						<line class="st2" x1="783.6" y1="182.5" x2="783.6" y2="240.6"/>
					</g>
					<g>
						<line class="st1" x1="209.3" y1="181.7" x2="209.3" y2="240.6"/>
						<line class="st2" x1="209.3" y1="181.7" x2="209.3" y2="240.6"/>
					</g>
					<path class="st5" d="M-217.7,6.6c-5-2.4-10.3-4-15.6-4.7V1.9c36.6-4.8,67.8,15.8,95.8,48.6c8.1,9.4,15.9,19.9,23.5,31.1
						C-54.6,168.9-7.3,297.2,55,324.9c8,3.6,20.5,5.5,29.1,5.4c0,0-21.3,1.6-27.1,1.6c-90.3,0-136.9-120-188.6-216.6
						c-7.5-13.8-14.8-27.1-22.3-39.3C-173.9,43.1-194.5,17.2-217.7,6.6z"/>
				</g>
			</g>
			<g>
				<defs>
					<rect id="SVGID_23_" width="587" height="334.3"/>
				</defs>
				<clipPath id="SVGID_24_">
					<use xlink:href="#SVGID_23_"  style="overflow:visible;"/>
				</clipPath>
			</g>
		</g>
	</g>
</g>
<g id="レイヤー_2">
</g>
</svg>
