<?xml version="1.0" standalone="no"?>
<!DOCTYPE svg PUBLIC "-//W3C//DTD SVG 20010904//EN"
 "http://www.w3.org/TR/2001/REC-SVG-20010904/DTD/svg10.dtd">
<svg version="1.0" xmlns="http://www.w3.org/2000/svg"
 width="1000.000000pt" height="1000.000000pt" viewBox="0 0 1000.000000 1000.000000"
 preserveAspectRatio="xMidYMid meet">
<metadata>
Created by potrace 1.14, written by Peter Selinger 2001-2017
</metadata>
<g transform="translate(0.000000,1000.000000) scale(0.100000,-0.100000)"
fill="#000000" stroke="none">
<path d="M908 8948 c-13 -3 -20 -6 -17 -7 4 -1 3 -21 -2 -46 -5 -25 -11 -67
-14 -93 -4 -26 -8 -54 -10 -62 -3 -8 -7 -35 -10 -60 -3 -25 -10 -70 -15 -100
-16 -91 -64 -396 -75 -465 -3 -23 -7 -50 -9 -60 -2 -11 -7 -40 -10 -65 -3 -25
-8 -55 -10 -66 -6 -28 -11 -61 -47 -294 -16 -107 -32 -202 -34 -210 -2 -8 -6
-35 -9 -60 -4 -25 -8 -56 -10 -70 -9 -49 -35 -216 -40 -250 -3 -19 -12 -78
-20 -130 -9 -52 -18 -112 -22 -134 -3 -21 -7 -48 -10 -59 -2 -12 -6 -39 -9
-62 -3 -22 -10 -65 -15 -95 -5 -30 -12 -73 -15 -95 -3 -23 -8 -52 -10 -65 -3
-14 -8 -45 -11 -70 -3 -25 -7 -52 -9 -60 -2 -8 -7 -33 -10 -55 -3 -23 -7 -52
-10 -65 -3 -14 -12 -72 -20 -130 -9 -58 -17 -112 -20 -120 -2 -8 -6 -37 -10
-63 -3 -26 -10 -70 -15 -97 -5 -27 -12 -73 -15 -102 -3 -29 -8 -60 -10 -68 -2
-8 -7 -34 -10 -57 l-6 -41 786 0 c432 -1 785 1 785 2 0 2 5 27 10 57 6 29 17
98 25 153 8 56 17 111 19 122 3 12 7 39 10 60 4 22 11 67 17 102 6 35 8 66 5
69 -3 4 -207 6 -453 6 -247 0 -451 1 -454 3 -3 2 -2 27 2 56 5 29 11 69 14 88
3 19 10 60 15 90 10 56 16 97 24 160 3 19 7 46 10 60 6 36 26 160 31 195 2 17
6 44 9 60 3 17 10 62 16 100 13 82 17 111 30 185 15 89 21 133 25 165 2 17 10
71 19 120 8 50 18 108 21 130 2 22 7 51 10 65 5 25 18 108 30 185 3 22 10 65
15 95 5 30 12 78 15 105 4 28 8 57 10 65 3 8 14 76 25 150 11 74 23 146 25
160 2 14 7 43 10 65 4 22 15 92 25 155 10 63 22 135 25 160 3 25 10 68 15 95
5 28 12 68 15 90 3 22 8 55 11 73 5 27 3 32 -12 32 -190 5 -609 3 -626 -2z"/>
<path d="M3016 8899 c-128 -20 -270 -133 -328 -261 -24 -52 -40 -151 -33 -201
4 -23 17 -66 30 -95 97 -213 403 -231 592 -35 153 159 163 390 21 518 -73 66
-170 91 -282 74z"/>
<path d="M4070 8380 c-8 -5 -24 -79 -35 -161 -3 -25 -8 -57 -10 -70 -19 -117
-25 -149 -30 -184 -3 -22 -10 -65 -15 -95 -10 -63 -17 -105 -26 -172 -6 -45
-8 -48 -38 -49 -17 0 -104 0 -193 0 -90 0 -163 -3 -164 -7 0 -4 -2 -18 -5 -32
-20 -121 -37 -220 -40 -245 -4 -32 -14 -96 -20 -130 -2 -11 -7 -41 -10 -66
l-6 -46 178 -1 c99 0 185 -1 192 -1 10 -1 12 -12 7 -43 -4 -24 -8 -54 -10 -68
-3 -14 -12 -70 -21 -125 -9 -55 -18 -113 -20 -130 -3 -25 -32 -212 -49 -315
-2 -14 -11 -70 -20 -125 -22 -142 -25 -157 -30 -185 -2 -14 -7 -45 -10 -70 -3
-25 -10 -67 -15 -95 -5 -27 -12 -68 -15 -90 -3 -22 -7 -51 -10 -65 -3 -14 -7
-41 -9 -60 -3 -19 -13 -86 -24 -147 -10 -62 -16 -117 -13 -122 9 -15 611 -12
616 3 2 6 6 27 9 46 4 29 19 124 41 260 2 14 9 57 15 95 6 39 15 97 20 130 30
184 60 376 65 415 3 25 8 52 10 60 2 8 6 33 10 55 3 22 10 67 15 100 5 33 12
78 15 100 4 22 8 51 10 65 3 14 7 43 10 65 3 22 10 63 15 90 5 28 12 73 16
100 3 28 8 52 10 54 3 3 479 5 536 2 16 -1 18 -34 3 -97 -2 -12 -7 -39 -10
-60 -3 -21 -10 -64 -15 -94 -5 -30 -12 -75 -15 -100 -3 -25 -8 -52 -10 -60 -2
-8 -6 -35 -9 -60 -3 -25 -8 -55 -10 -66 -2 -12 -7 -39 -10 -60 -3 -22 -8 -50
-11 -64 -2 -14 -7 -43 -10 -65 -3 -22 -7 -51 -10 -65 -2 -14 -7 -43 -10 -65
-3 -22 -12 -83 -21 -135 -8 -52 -16 -106 -19 -120 -2 -14 -7 -45 -11 -70 -4
-25 -8 -54 -10 -65 -4 -33 -16 -104 -28 -175 -14 -82 -16 -97 -21 -135 -3 -22
-8 -52 -10 -67 l-5 -27 311 2 c269 2 312 4 315 17 1 8 14 92 28 185 15 94 29
181 31 195 2 14 11 70 20 125 9 55 18 114 21 130 3 17 7 44 9 60 2 17 13 86
24 155 11 69 23 143 26 165 3 22 10 63 15 90 5 28 12 68 15 90 3 22 7 51 10
65 5 27 14 87 20 133 13 93 16 114 20 127 2 8 7 35 10 60 4 25 9 47 11 49 2 2
88 5 191 5 l188 1 6 45 c4 25 14 90 23 145 9 55 19 118 22 140 3 22 12 73 19
113 7 40 9 74 6 77 -4 2 -77 4 -162 4 -84 0 -167 0 -183 0 -33 1 -33 -7 4 216
26 160 28 170 35 220 3 22 15 96 26 164 11 68 18 126 14 129 -6 7 -604 6 -611
0 -5 -5 -37 -190 -48 -273 -3 -22 -12 -80 -21 -130 -9 -49 -18 -110 -21 -135
-3 -24 -7 -47 -9 -50 -2 -3 -7 -35 -10 -70 -4 -36 -8 -66 -9 -68 -3 -2 -298
-4 -479 -3 l-79 1 7 43 c4 23 9 56 12 72 8 47 11 67 17 115 4 25 9 57 11 73 3
15 7 39 10 55 2 15 11 72 20 127 39 247 39 245 24 246 -62 4 -593 3 -599 -1z"/>
<path d="M7100 7705 c-121 -21 -132 -23 -208 -49 -200 -68 -370 -184 -505
-346 -183 -218 -291 -475 -341 -809 -12 -83 -13 -309 -2 -366 4 -16 9 -43 12
-60 3 -16 17 -65 31 -109 100 -307 358 -510 708 -554 72 -10 339 -8 410 3 308
44 486 137 645 335 50 62 126 187 119 194 -2 2 -52 27 -111 55 -59 28 -163 78
-230 111 -67 33 -125 60 -129 60 -4 0 -25 -24 -47 -52 -119 -157 -250 -233
-409 -237 -112 -3 -175 20 -244 89 -60 60 -92 125 -107 224 -9 56 -8 227 2
252 5 12 114 14 721 14 l715 0 1 23 c0 12 3 36 5 52 19 115 22 168 19 310 -3
171 -16 250 -61 375 -64 179 -184 318 -345 400 -60 31 -162 66 -218 75 -19 3
-38 8 -43 11 -19 12 -317 11 -388 -1z m304 -457 c57 -29 110 -87 146 -158 17
-33 28 -60 25 -60 -2 0 0 -11 5 -25 5 -13 12 -54 15 -90 l7 -65 -34 0 c-250
-3 -781 0 -785 4 -9 9 46 131 87 194 131 201 363 287 534 200z"/>
<path d="M9610 7704 c-141 -29 -258 -93 -371 -203 l-79 -76 5 40 c3 22 10 64
15 94 18 100 51 90 -299 89 l-310 0 -11 -72 c-6 -39 -14 -84 -16 -101 -2 -16
-6 -41 -9 -55 -2 -14 -6 -41 -9 -60 -7 -47 -36 -229 -42 -260 -2 -14 -7 -43
-9 -65 -3 -22 -8 -53 -11 -70 -8 -46 -14 -82 -19 -117 -3 -18 -7 -44 -10 -58
-2 -14 -7 -45 -10 -70 -3 -25 -10 -67 -15 -95 -5 -27 -16 -97 -25 -155 -9 -58
-19 -118 -21 -135 -3 -16 -7 -43 -9 -58 -11 -78 -16 -113 -20 -127 -2 -8 -7
-35 -10 -60 -3 -25 -10 -70 -15 -100 -5 -30 -12 -73 -15 -95 -3 -22 -10 -65
-15 -95 -5 -30 -12 -77 -16 -105 -3 -27 -8 -52 -9 -55 -2 -3 -6 -26 -9 -50 -4
-25 -9 -61 -12 -82 l-5 -36 310 -1 c171 0 311 1 311 3 0 1 4 27 10 57 8 51 12
76 25 167 5 35 8 50 20 112 3 14 7 43 9 65 3 22 16 112 31 200 35 214 33 204
40 250 3 23 7 52 10 65 3 13 7 42 11 65 3 22 10 63 15 90 6 28 13 61 15 75 3
14 15 57 26 95 69 228 179 364 341 421 135 48 311 35 400 -28 15 -11 30 -19
31 -17 2 2 41 132 86 288 62 216 78 286 69 292 -60 37 -272 56 -379 33z"/>
<path d="M2569 7629 c-1 -10 -2 -22 -3 -26 -1 -5 -6 -33 -11 -63 -5 -30 -9
-57 -10 -60 0 -3 -4 -27 -9 -55 -4 -27 -9 -61 -11 -75 -2 -14 -9 -54 -14 -90
-6 -36 -13 -83 -16 -105 -3 -22 -12 -76 -20 -120 -8 -44 -17 -100 -20 -125 -3
-25 -8 -52 -10 -60 -2 -8 -7 -40 -10 -70 -4 -30 -8 -57 -10 -60 -2 -3 -6 -29
-10 -59 -4 -30 -9 -63 -11 -75 -2 -12 -7 -41 -10 -66 -3 -25 -8 -53 -10 -63
-3 -10 -7 -31 -9 -48 -8 -60 -16 -115 -20 -139 -5 -28 -8 -43 -30 -185 -9 -55
-18 -111 -20 -125 -12 -73 -14 -89 -20 -130 -3 -25 -8 -52 -10 -60 -2 -8 -6
-35 -9 -60 -3 -25 -8 -55 -10 -66 -2 -12 -7 -39 -10 -60 -3 -22 -8 -55 -12
-75 l-5 -37 310 0 310 -1 6 32 c2 18 9 59 15 92 27 167 28 174 35 225 3 25 8
52 10 60 2 8 7 35 10 60 8 59 14 99 20 130 3 14 7 47 11 74 3 28 7 52 9 55 2
3 6 30 10 60 4 30 9 63 11 75 4 18 14 80 30 181 2 17 6 41 9 55 2 14 7 45 10
70 4 25 19 124 35 220 16 96 31 195 35 220 3 25 8 57 11 73 2 15 6 39 8 55 3
15 12 68 20 117 8 50 18 113 22 140 3 28 8 59 10 70 2 11 7 41 10 67 l6 47
-311 0 c-301 0 -311 -1 -312 -20z"/>
<path d="M4709 4026 c-2 -2 -26 -6 -54 -9 -202 -23 -461 -168 -604 -337 l-41
-49 40 -78 c55 -107 74 -187 73 -308 0 -131 -28 -238 -98 -380 -81 -162 -212
-326 -341 -425 -62 -48 -62 -52 -24 -150 157 -401 422 -589 810 -575 198 7
388 81 550 216 l60 50 -6 -38 c-3 -21 -12 -73 -18 -115 l-13 -78 318 0 317 0
7 53 c3 28 10 75 15 102 5 28 12 68 14 90 3 22 7 49 9 60 3 11 8 43 11 70 4
28 9 57 11 65 2 8 6 37 10 63 16 130 23 151 62 182 228 179 347 430 337 710
-2 55 -5 107 -7 115 -2 8 -7 33 -12 55 -15 75 -62 174 -117 251 -42 58 -43 60
-37 119 8 76 17 134 34 213 l13 62 -319 -2 c-360 -2 -320 8 -334 -88 -3 -25
-8 -54 -10 -65 -2 -11 -4 -26 -4 -33 -1 -7 -34 21 -74 62 -120 120 -280 185
-478 192 -53 2 -98 2 -100 0z m540 -597 c258 -65 365 -222 316 -462 -15 -70
-75 -194 -121 -251 -203 -246 -501 -419 -744 -430 -206 -10 -351 109 -344 284
2 66 4 78 24 165 30 132 118 336 192 443 89 130 239 229 393 262 66 14 205 8
284 -11z"/>
<path d="M8668 4026 c-1 -2 -37 -6 -78 -10 -251 -20 -531 -119 -757 -268 -46
-30 -81 -57 -78 -59 9 -10 54 -207 61 -269 34 -311 -46 -615 -215 -818 -26
-31 -64 -68 -85 -82 -35 -24 -36 -27 -32 -70 9 -82 46 -203 86 -286 95 -196
262 -338 474 -403 63 -19 83 -24 156 -37 52 -10 298 -11 360 -3 347 47 627
221 861 537 76 102 140 221 238 447 65 148 94 250 76 265 -16 14 -170 47 -265
57 -91 10 -563 10 -750 0 -74 -4 -190 -10 -257 -12 l-122 -6 35 58 c82 136 79
262 -7 372 l-20 25 48 19 c63 25 193 33 279 18 88 -16 89 -16 344 -99 256 -84
342 -103 475 -108 142 -4 285 27 285 63 0 53 -125 227 -294 410 -99 108 -276
199 -464 239 -65 14 -343 29 -354 20z m202 -1431 c41 -4 85 -8 98 -8 12 -1 22
-4 22 -8 0 -19 -63 -145 -99 -198 -45 -66 -154 -169 -188 -177 -13 -4 -23 -10
-23 -14 0 -19 -167 -47 -227 -39 -178 24 -293 162 -309 370 -4 51 -2 59 13 60
124 4 376 20 380 23 6 5 265 -3 333 -9z"/>
<path d="M339 3956 c-2 -3 -7 -40 -13 -99 -4 -37 -9 -76 -11 -85 -1 -9 -6 -44
-10 -77 -3 -32 -8 -62 -11 -66 -2 -4 19 -29 47 -56 246 -232 244 -615 -5 -908
-64 -76 -76 -86 -158 -141 -69 -45 -73 -51 -83 -119 -3 -22 -8 -51 -10 -65 -4
-24 -60 -385 -72 -465 -4 -22 -7 -51 -7 -65 l-1 -25 318 -1 c223 -1 317 2 318
10 0 6 2 18 4 26 1 8 6 35 10 60 4 25 9 52 10 60 2 8 4 21 4 29 1 7 19 -11 41
-40 109 -145 293 -223 510 -214 205 8 367 67 515 189 57 47 58 47 107 103 l36
41 33 -52 c85 -132 223 -224 400 -265 149 -35 390 -13 519 47 162 74 295 213
377 392 29 63 70 177 77 216 15 78 27 100 62 119 43 23 136 111 182 172 60 77
123 221 148 334 3 13 8 67 11 119 9 170 -38 315 -139 425 -50 54 -51 58 -49
112 1 31 3 59 5 62 2 3 7 26 10 51 3 25 8 56 11 70 3 14 8 43 11 66 l5 41
-320 0 -320 0 -5 -26 c-3 -14 -8 -44 -11 -66 -2 -22 -6 -49 -9 -60 -2 -11 -9
-58 -16 -105 l-13 -86 33 -64 c151 -299 145 -626 -17 -920 -139 -252 -291
-372 -464 -365 -105 4 -200 54 -284 147 l-45 50 36 29 c265 210 347 440 267
754 -8 33 -20 74 -27 90 -41 96 -65 146 -101 210 l-41 71 12 69 c6 39 16 99
22 135 6 36 14 81 17 101 l6 36 -320 0 -320 0 -5 -26 c-7 -33 -14 -72 -22
-130 -4 -25 -8 -55 -10 -66 -3 -11 -7 -38 -9 -59 -3 -21 -7 -42 -10 -46 -2 -3
10 -26 26 -51 93 -137 133 -279 133 -469 1 -242 -65 -428 -217 -615 -164 -202
-325 -273 -462 -202 -57 29 -133 101 -160 151 l-18 34 63 63 c236 240 284 468
160 770 -34 82 -98 202 -141 265 -16 23 -27 43 -25 45 2 2 7 26 10 52 4 26 11
69 16 95 4 26 11 67 15 92 3 25 8 57 10 71 l5 26 -320 0 c-176 0 -320 0 -321
-1z"/>
<path d="M6555 3946 c-8 -25 -36 -215 -39 -265 -4 -49 -1 -58 31 -100 55 -72
98 -172 118 -276 9 -49 6 -206 -5 -265 -37 -196 -160 -412 -287 -505 -40 -29
-47 -44 -57 -110 -18 -122 -15 -115 -54 -116 -21 0 -69 0 -109 1 -80 1 -74 7
-89 -95 -3 -22 -7 -51 -9 -65 -8 -51 -25 -156 -29 -180 -6 -30 -13 -78 -21
-142 l-6 -47 93 1 c120 0 130 0 125 -9 -3 -5 -8 -28 -11 -53 -3 -25 -8 -56
-10 -70 -5 -29 -16 -96 -20 -125 -2 -11 -7 -40 -10 -65 -4 -25 -9 -52 -11 -60
-2 -8 -7 -40 -10 -70 -4 -30 -10 -73 -15 -95 -5 -22 -11 -64 -15 -94 -4 -30
-8 -62 -10 -73 -2 -10 2 -18 8 -19 17 -1 587 -1 615 0 12 1 21 4 20 9 -2 6 12
115 17 132 1 3 5 30 10 60 5 30 9 57 10 60 1 3 5 32 9 65 4 32 9 67 11 76 4
20 13 76 21 127 3 20 7 44 9 52 4 15 17 114 18 138 0 14 0 14 229 14 l168 0 5
37 c3 20 10 61 15 91 5 30 12 78 15 105 4 28 8 57 10 65 6 20 13 65 19 115 3
22 8 57 11 77 l6 37 -133 0 c-73 0 -161 0 -196 0 l-62 1 4 28 c3 15 8 47 11
72 10 72 13 78 89 153 101 101 169 225 210 383 41 161 39 354 -5 493 -15 47
-67 151 -86 172 -12 14 -12 30 -3 100 10 74 16 105 36 208 3 14 7 28 10 33 3
5 -141 8 -321 7 -221 -2 -328 -6 -330 -13z"/>
</g>
</svg>
